<?xml version="1.0" encoding="UTF-8"?>
<!DOCTYPE svg PUBLIC "-//W3C//DTD SVG 1.1//EN" "http://www.w3.org/Graphics/SVG/1.1/DTD/svg11.dtd">
<svg xmlns="http://www.w3.org/2000/svg" version="1.1" width="1920px" height="393px" style="shape-rendering:geometricPrecision; text-rendering:geometricPrecision; image-rendering:optimizeQuality; fill-rule:evenodd; clip-rule:evenodd" xmlns:xlink="http://www.w3.org/1999/xlink">
<g><path style="opacity:0.997" fill="#18a3af" d="M 67.5,-0.5 C 153.167,-0.5 238.833,-0.5 324.5,-0.5C 361.486,7.65336 383.986,30.32 392,67.5C 392.667,153.167 392.667,238.833 392,324.5C 383.986,361.68 361.486,384.347 324.5,392.5C 238.833,392.5 153.167,392.5 67.5,392.5C 30.5,384.167 7.83333,361.5 -0.5,324.5C -0.5,238.833 -0.5,153.167 -0.5,67.5C 7.83333,30.5 30.5,7.83333 67.5,-0.5 Z"/></g>
<g><path style="opacity:1" fill="#edc94f" d="M 195.5,18.5 C 217.197,16.4231 232.031,25.4231 240,45.5C 242.782,58.5131 240.115,70.1798 232,80.5C 203.97,100.551 188.97,127.885 187,162.5C 178.797,180.024 164.963,187.857 145.5,186C 122.417,179.017 112.584,163.517 116,139.5C 117.806,134.554 120.139,129.888 123,125.5C 135.041,116.46 145.374,105.793 154,93.5C 162.242,78.1979 166.909,61.8646 168,44.5C 172.845,31.1526 182.011,22.486 195.5,18.5 Z"/></g>
<g><path style="opacity:1" fill="#1ea3ae" d="M 197.5,34.5 C 215.846,33.0207 225.013,41.354 225,59.5C 219.231,75.7544 208.398,80.5877 192.5,74C 181.845,65.711 179.678,55.5443 186,43.5C 189.183,39.4622 193.016,36.4622 197.5,34.5 Z"/></g>
<g><path style="opacity:0.959" fill="#6a4c3d" d="M 596.5,70.5 C 628.791,67.1566 658.457,74.3233 685.5,92C 690.543,95.104 691.71,99.2707 689,104.5C 686.083,108.666 683.416,112.999 681,117.5C 679.818,119.357 678.151,120.357 676,120.5C 667.766,115.631 659.266,111.131 650.5,107C 608.064,92.651 571.231,101.484 540,133.5C 507.34,175.837 507.34,218.171 540,260.5C 570.898,291.598 607.064,299.764 648.5,285C 657.089,280.734 665.422,276.067 673.5,271C 674.833,270.333 676.167,270.333 677.5,271C 681.723,276.224 685.556,281.724 689,287.5C 690.422,290.03 690.755,292.697 690,295.5C 667.597,313.524 641.93,322.19 613,321.5C 555.346,319.515 515.68,291.848 494,238.5C 478.242,185.36 490.075,139.527 529.5,101C 549.115,84.8589 571.449,74.6922 596.5,70.5 Z"/></g>
<g><path style="opacity:0.96" fill="#6a4c3d" d="M 1919.5,180.5 C 1919.5,191.167 1919.5,201.833 1919.5,212.5C 1910.38,265.192 1880.38,300.026 1829.5,317C 1776.75,330.077 1732.25,316.577 1696,276.5C 1662.99,231.353 1658.99,183.686 1684,133.5C 1713.19,86.9905 1755.35,66.1572 1810.5,71C 1871.78,82.7762 1908.11,119.276 1919.5,180.5 Z M 1779.5,99.5 C 1827.3,96.3067 1861.8,115.973 1883,158.5C 1899.11,206.229 1887.28,245.396 1847.5,276C 1810.94,298.276 1774.6,297.943 1738.5,275C 1699.58,243.886 1688.41,204.719 1705,157.5C 1720.21,125.81 1745.05,106.477 1779.5,99.5 Z"/></g>
<g><path style="opacity:0.961" fill="#6a4c3d" d="M 819.5,73.5 C 822.518,73.3354 825.518,73.502 828.5,74C 830.333,74.5 831.5,75.6667 832,77.5C 864.058,151.95 896.392,226.283 929,300.5C 930.899,304.863 932.399,309.363 933.5,314C 933.223,315.892 932.223,317.225 930.5,318C 858.793,318.83 787.126,318.663 715.5,317.5C 714.059,312.635 714.559,307.969 717,303.5C 750.194,228.249 783.194,152.916 816,77.5C 817.032,75.9733 818.199,74.64 819.5,73.5 Z M 823.5,128.5 C 846.142,181.399 868.809,234.399 891.5,287.5C 846.17,288.667 800.837,288.833 755.5,288C 778.85,235.113 801.517,181.946 823.5,128.5 Z"/></g>
<g><path style="opacity:0.96" fill="#6a4c3d" d="M 1048.5,73.5 C 1054.84,73.3338 1061.18,73.5005 1067.5,74C 1068.33,74.8333 1069.17,75.6667 1070,76.5C 1080.74,102.978 1091.74,129.312 1103,155.5C 1114,129.167 1125,102.833 1136,76.5C 1136.83,75.6667 1137.67,74.8333 1138.5,74C 1144.83,73.3333 1151.17,73.3333 1157.5,74C 1158.31,74.3076 1158.97,74.8076 1159.5,75.5C 1191.59,152.022 1223.42,228.689 1255,305.5C 1256.04,308.276 1256.87,311.11 1257.5,314C 1257.56,315.711 1256.89,317.044 1255.5,318C 1247.17,318.667 1238.83,318.667 1230.5,318C 1229.07,317.535 1227.9,316.701 1227,315.5C 1200.86,250.087 1174.53,184.753 1148,119.5C 1137.97,143.934 1128.13,168.434 1118.5,193C 1134.97,233.441 1151.3,273.941 1167.5,314.5C 1167.08,315.672 1166.41,316.672 1165.5,317.5C 1123.87,318.661 1082.21,318.827 1040.5,318C 1038.52,315.503 1038.02,312.669 1039,309.5C 1055.03,270.609 1071.2,231.776 1087.5,193C 1077.81,168.444 1067.97,143.944 1058,119.5C 1031.06,185.053 1004.39,250.72 978,316.5C 977.25,317.126 976.416,317.626 975.5,318C 966.785,318.804 958.118,318.637 949.5,317.5C 948.093,311.866 948.926,306.532 952,301.5C 982.943,227.948 1013.61,154.281 1044,80.5C 1045.01,77.7982 1046.51,75.4649 1048.5,73.5 Z M 1102.5,231.5 C 1111.26,252.202 1119.93,273.035 1128.5,294C 1111.49,294.833 1094.49,294.666 1077.5,293.5C 1085.84,272.804 1094.17,252.138 1102.5,231.5 Z"/></g>
<g><path style="opacity:0.976" fill="#6a4c3d" d="M 1288.5,73.5 C 1344.5,73.3333 1400.5,73.5 1456.5,74C 1457,74.5 1457.5,75 1458,75.5C 1458.67,83.8333 1458.67,92.1667 1458,100.5C 1457.5,101 1457,101.5 1456.5,102C 1409.5,102.5 1362.5,102.667 1315.5,102.5C 1315.5,139.5 1315.5,176.5 1315.5,213.5C 1352.83,213.333 1390.17,213.5 1427.5,214C 1428.89,215.171 1429.73,216.671 1430,218.5C 1430.9,226.246 1430.56,233.913 1429,241.5C 1428.25,242.126 1427.42,242.626 1426.5,243C 1389.5,243.5 1352.5,243.667 1315.5,243.5C 1315.5,258.833 1315.5,274.167 1315.5,289.5C 1362.17,289.333 1408.83,289.5 1455.5,290C 1456.33,290.833 1457.17,291.667 1458,292.5C 1458.67,300.167 1458.67,307.833 1458,315.5C 1457.5,316.667 1456.67,317.5 1455.5,318C 1399.83,318.667 1344.17,318.667 1288.5,318C 1288,317.5 1287.5,317 1287,316.5C 1286.83,276.167 1286.67,235.833 1286.5,195.5C 1286.51,154.622 1287.17,113.955 1288.5,73.5 Z"/></g>
<g><path style="opacity:0.969" fill="#6a4c3d" d="M 1499.5,73.5 C 1507.51,73.3336 1515.51,73.5003 1523.5,74C 1524.7,74.9025 1525.53,76.0692 1526,77.5C 1526.5,148.166 1526.67,218.833 1526.5,289.5C 1567.17,289.333 1607.83,289.5 1648.5,290C 1649,290.5 1649.5,291 1650,291.5C 1650.67,299.5 1650.67,307.5 1650,315.5C 1649.5,316.667 1648.67,317.5 1647.5,318C 1598.17,318.667 1548.83,318.667 1499.5,318C 1499,317.5 1498.5,317 1498,316.5C 1497.33,236.167 1497.33,155.833 1498,75.5C 1498.72,74.9558 1499.22,74.2891 1499.5,73.5 Z"/></g>
<g><path style="opacity:1" fill="#ea6943" d="M 241.5,75.5 C 242.664,82.1072 244.164,88.7739 246,95.5C 248.806,102.758 251.806,109.758 255,116.5C 233.153,108.893 215.487,114.559 202,133.5C 201.333,130.167 201.333,126.833 202,123.5C 209.172,106.822 220.339,93.4886 235.5,83.5C 237.909,81.0976 239.909,78.4309 241.5,75.5 Z"/></g>
<g><path style="opacity:1" fill="#edc94f" d="M 231.5,117.5 C 236.913,117.229 242.246,117.729 247.5,119C 255.257,122.378 262.924,126.045 270.5,130C 286.348,136.418 302.681,138.084 319.5,135C 327.476,132.342 335.643,130.509 344,129.5C 365.828,131.829 378.328,143.829 381.5,165.5C 378.206,194.297 362.206,206.797 333.5,203C 322.444,196.64 310.777,191.64 298.5,188C 287.58,185.893 276.58,185.227 265.5,186C 256.276,188.687 246.943,190.854 237.5,192.5C 210.718,188.313 198.885,172.646 202,145.5C 206.858,130.806 216.691,121.473 231.5,117.5 Z"/></g>
<g><path style="opacity:1" fill="#1da3ae" d="M 146.5,127.5 C 159.139,125.9 167.972,130.9 173,142.5C 174.811,161.353 166.311,170.52 147.5,170C 132.056,163.659 127.556,152.826 134,137.5C 137.44,133.223 141.607,129.89 146.5,127.5 Z"/></g>
<g><path style="opacity:1" fill="#ea6843" d="M 112.5,129.5 C 113.239,129.369 113.906,129.536 114.5,130C 106.201,150.471 110.201,168.137 126.5,183C 123.5,183.667 120.5,183.667 117.5,183C 102.333,174.5 90.5,162.667 82,147.5C 79.1667,144.667 76.3333,141.833 73.5,139C 87.2893,138.56 100.289,135.393 112.5,129.5 Z"/></g>
<g><path style="opacity:1" fill="#1da3ae" d="M 232.5,133.5 C 251.332,132.831 260.165,141.831 259,160.5C 254.375,172.781 245.542,177.947 232.5,176C 219.565,170.629 214.731,161.129 218,147.5C 220.832,140.684 225.665,136.017 232.5,133.5 Z"/></g>
<g><path style="opacity:1" fill="#edc94f" d="M 41.5,135.5 C 56.2537,134.359 68.4204,139.359 78,150.5C 94.3052,178.248 118.472,194.415 150.5,199C 173.909,212.586 179.075,231.419 166,255.5C 153.124,269.927 137.624,273.761 119.5,267C 114.884,264.44 110.718,261.273 107,257.5C 91.184,228.992 67.0173,212.492 34.5,208C 14.1703,197.68 7.00368,181.513 13,159.5C 18.7621,146.893 28.2621,138.893 41.5,135.5 Z"/></g>
<g><path style="opacity:1" fill="#1da3ae" d="M 338.5,145.5 C 360.442,145.74 368.609,156.406 363,177.5C 354.077,189.105 343.244,191.272 330.5,184C 319.964,172.577 319.964,161.244 330.5,150C 333.099,148.205 335.766,146.705 338.5,145.5 Z"/></g>
<g><path style="opacity:1" fill="#1da3ae" d="M 42.5,151.5 C 60.3369,150.507 69.1702,158.841 69,176.5C 65.2488,189.904 56.4155,195.737 42.5,194C 27.7342,187.963 23.2342,177.463 29,162.5C 32.3358,157.269 36.8358,153.602 42.5,151.5 Z"/></g>
<g><path style="opacity:0.947" fill="#6a4c3d" d="M 610.5,172.5 C 631.828,172.825 640.662,183.492 637,204.5C 628.343,219.71 616.176,223.21 600.5,215C 591.167,206.434 589,196.267 594,184.5C 597.892,178.151 603.392,174.151 610.5,172.5 Z"/></g>
<g><path style="opacity:0.947" fill="#6a4c3d" d="M 1789.5,172.5 C 1808.64,172.144 1817.81,181.477 1817,200.5C 1813.19,214.498 1804.02,220.664 1789.5,219C 1775.17,214.843 1769,205.343 1771,190.5C 1773.79,180.875 1779.96,174.875 1789.5,172.5 Z"/></g>
<g><path style="opacity:1" fill="#eb6843" d="M 310.5,234.5 C 309.833,231.5 309.167,228.5 308.5,225.5C 305.214,208.711 295.214,198.211 278.5,194C 280.5,192.667 282.5,191.333 284.5,190C 291.975,190.294 299.308,191.627 306.5,194C 315.274,197.553 323.607,201.886 331.5,207C 335.123,208.156 338.789,209.156 342.5,210C 330.509,216.497 319.843,224.664 310.5,234.5 Z"/></g>
<g><path style="opacity:1" fill="#edc94f" d="M 261.5,196.5 C 284.082,195.024 298.582,205.024 305,226.5C 300.111,260.826 309.445,290.493 333,315.5C 342.327,334.366 339.16,350.866 323.5,365C 303.9,376.991 286.4,374.491 271,357.5C 267.564,351.956 265.23,345.956 264,339.5C 267.754,315.271 263.421,292.604 251,271.5C 247.749,266.245 243.749,261.578 239,257.5C 225.819,237.114 228.319,218.948 246.5,203C 251.381,200.218 256.381,198.051 261.5,196.5 Z"/></g>
<g><path style="opacity:1" fill="#1da3ae" d="M 131.5,211.5 C 144.422,210.596 152.922,216.263 157,228.5C 157.461,247.372 148.294,255.872 129.5,254C 115.441,247.387 111.274,236.887 117,222.5C 120.514,217.003 125.348,213.337 131.5,211.5 Z"/></g>
<g><path style="opacity:1" fill="#1da3ae" d="M 261.5,212.5 C 280.344,211.181 289.511,219.848 289,238.5C 284.995,250.823 276.495,256.323 263.5,255C 247.52,248.532 243.02,237.366 250,221.5C 253.161,217.491 256.994,214.491 261.5,212.5 Z"/></g>
<g><path style="opacity:1" fill="#878476" d="M 308.5,225.5 C 309.167,228.5 309.833,231.5 310.5,234.5C 310.44,235.043 310.107,235.376 309.5,235.5C 308.513,232.232 308.18,228.898 308.5,225.5 Z"/></g>
<g><path style="opacity:1" fill="#edc94f" d="M 196.5,249.5 C 219.505,248.017 234.005,258.35 240,280.5C 241.533,300.617 233.033,314.451 214.5,322C 190.181,323.103 168.514,331.103 149.5,346C 143.5,352.667 137.5,359.333 131.5,366C 112.215,377.827 94.7146,375.66 79,359.5C 66.9779,339.565 69.4779,321.732 86.5,306C 90.4432,303.196 94.7766,301.196 99.5,300C 132.3,298.936 158.3,285.27 177.5,259C 183.117,254.196 189.45,251.03 196.5,249.5 Z"/></g>
<g><path style="opacity:1" fill="#eb6842" d="M 101.5,257.5 C 115.723,274.791 133.39,279.458 154.5,271.5C 154.773,274.804 153.44,277.637 150.5,280C 136.297,289.4 120.63,294.4 103.5,295C 99.4575,296.245 95.4575,297.245 91.5,298C 98.205,285.346 101.538,271.846 101.5,257.5 Z"/></g>
<g><path style="opacity:1" fill="#1da3ae" d="M 196.5,265.5 C 214.857,264.032 224.024,272.365 224,290.5C 220.411,303.415 211.911,309.248 198.5,308C 182.506,301.508 178.006,290.341 185,274.5C 188.161,270.491 191.994,267.491 196.5,265.5 Z"/></g>
<g><path style="opacity:1" fill="#ea6843" d="M 243.5,275.5 C 245.907,276.794 248.074,278.461 250,280.5C 253.66,287.813 256.327,295.48 258,303.5C 258.409,316.873 258.742,330.206 259,343.5C 247.632,334.706 234.798,329.206 220.5,327C 240.834,315.499 248.5,298.332 243.5,275.5 Z"/></g>
<g><path style="opacity:1" fill="#1da3ae" d="M 295.5,313.5 C 317.442,313.74 325.609,324.406 320,345.5C 312.438,356.019 302.604,358.852 290.5,354C 277.137,343.034 276.137,331.034 287.5,318C 290.391,316.726 293.058,315.226 295.5,313.5 Z"/></g>
<g><path style="opacity:1" fill="#1da3ae" d="M 104.5,314.5 C 121.201,314.702 129.701,323.035 130,339.5C 125.402,355.052 115.235,360.552 99.5,356C 87.9156,348.575 84.749,338.409 90,325.5C 93.5145,320.003 98.3478,316.337 104.5,314.5 Z"/></g>
</svg>
