<?xml version="1.0" encoding="UTF-8"?>
<!DOCTYPE svg PUBLIC "-//W3C//DTD SVG 1.1//EN" "http://www.w3.org/Graphics/SVG/1.1/DTD/svg11.dtd">
<svg xmlns="http://www.w3.org/2000/svg" version="1.1" width="1920px" height="393px" style="shape-rendering:geometricPrecision; text-rendering:geometricPrecision; image-rendering:optimizeQuality; fill-rule:evenodd; clip-rule:evenodd" xmlns:xlink="http://www.w3.org/1999/xlink">
<g><path style="opacity:0.977" fill="#000000" d="M 61.5,-0.5 C 151.167,-0.5 240.833,-0.5 330.5,-0.5C 364.335,9.50528 384.835,31.8386 392,66.5C 392.667,152.167 392.667,237.833 392,323.5C 386.737,351.76 371.237,372.26 345.5,385C 338.723,387.778 331.723,389.778 324.5,391C 238.833,391.667 153.167,391.667 67.5,391C 30.32,382.986 7.65336,360.486 -0.5,323.5C -0.5,237.833 -0.5,152.167 -0.5,66.5C 6.98494,32.0135 27.6516,9.68018 61.5,-0.5 Z M 198.5,15.5 C 229.613,16.7718 243.113,32.7718 239,63.5C 237.166,68.6616 234.499,73.3283 231,77.5C 203.981,95.905 189.648,121.572 188,154.5C 179.407,177.38 163.24,185.88 139.5,180C 118.48,169.452 111.647,152.952 119,130.5C 120.08,128.004 121.414,125.67 123,123.5C 131.19,116.4 139.19,109.066 147,101.5C 159.909,84.7832 166.909,65.7832 168,44.5C 172.557,28.7729 182.724,19.1063 198.5,15.5 Z M 240.5,74.5 C 243.191,86.8908 247.524,98.8908 253.5,110.5C 253.167,110.833 252.833,111.167 252.5,111.5C 232.083,105.916 215.583,111.583 203,128.5C 202.163,126.179 201.83,123.845 202,121.5C 207.262,108.81 215.095,97.977 225.5,89C 231.685,85.3136 236.685,80.4803 240.5,74.5 Z M 236.5,114.5 C 241.979,114.974 247.313,116.14 252.5,118C 271.076,130.061 291.409,135.061 313.5,133C 323.946,131.305 334.279,129.138 344.5,126.5C 372.225,131.394 383.725,147.727 379,175.5C 370.357,195.071 355.523,202.905 334.5,199C 324.982,194.409 315.315,190.076 305.5,186C 291.355,182.661 277.022,181.661 262.5,183C 254.654,185.561 246.654,187.394 238.5,188.5C 212.822,185.654 200.655,171.321 202,145.5C 206.81,127.514 218.31,117.181 236.5,114.5 Z M 111.5,127.5 C 112.239,127.369 112.906,127.536 113.5,128C 105.529,148.492 109.862,165.825 126.5,180C 124.167,180.667 121.833,180.667 119.5,180C 102,170.5 88.5,157 79,139.5C 77.2287,138.696 75.7287,137.529 74.5,136C 87.5669,135.814 99.9002,132.981 111.5,127.5 Z M 46.5,132.5 C 59.5093,132.921 70.0093,138.255 78,148.5C 94.171,175.682 118.004,191.515 149.5,196C 166.191,203.877 173.691,217.044 172,235.5C 168.617,251.883 158.784,262.05 142.5,266C 129.618,268.2 118.618,264.7 109.5,255.5C 92.8215,226.338 67.8215,209.171 34.5,204C 14.3498,193.527 7.51651,177.36 14,155.5C 20.5784,141.746 31.4117,134.079 46.5,132.5 Z M 285.5,186.5 C 301.167,188.555 315.5,194.055 328.5,203C 332.425,204.584 336.425,205.917 340.5,207C 329.478,213.685 319.311,221.518 310,230.5C 309.79,209.555 299.623,196.389 279.5,191C 281.684,189.637 283.684,188.137 285.5,186.5 Z M 264.5,193.5 C 285.202,193.751 298.369,203.751 304,223.5C 299.332,257.489 308.665,286.822 332,311.5C 341.639,330.234 338.806,346.734 323.5,361C 307.924,371.201 292.59,370.868 277.5,360C 265.346,347.896 261.346,333.396 265.5,316.5C 264.962,299.385 260.462,283.385 252,268.5C 248.749,263.245 244.749,258.578 240,254.5C 228.667,238.5 228.667,222.5 240,206.5C 246.925,199.623 255.092,195.29 264.5,193.5 Z M 198.5,246.5 C 226.815,247.645 240.315,262.311 239,290.5C 236.191,303.947 228.357,313.114 215.5,318C 191.372,318.93 169.705,326.597 150.5,341C 143.699,347.622 137.366,354.622 131.5,362C 117.593,371.181 103.26,371.848 88.5,364C 71.6768,350.539 67.8434,334.039 77,314.5C 82.6787,305.151 90.8453,299.317 101.5,297C 124.06,296.375 144.06,289.042 161.5,275C 168.191,267.311 175.191,259.978 182.5,253C 187.607,249.935 192.94,247.769 198.5,246.5 Z M 154.5,269.5 C 154.067,272.195 152.734,274.362 150.5,276C 144.609,280.113 138.276,283.446 131.5,286C 118.551,289.403 105.551,292.069 92.5,294C 95.4427,289.176 97.6093,284.009 99,278.5C 100.479,271.177 101.813,263.844 103,256.5C 111.443,267.303 122.609,272.636 136.5,272.5C 142.673,272.455 148.673,271.455 154.5,269.5 Z M 258.5,338.5 C 247.615,330.921 235.615,325.754 222.5,323C 234.977,316.562 242.477,306.395 245,292.5C 245.346,286.377 245.513,280.377 245.5,274.5C 246.914,275.624 248.414,276.624 250,277.5C 253.131,284.227 255.464,291.227 257,298.5C 258.232,311.824 258.732,325.158 258.5,338.5 Z"/></g>
<g><path style="opacity:0.948" fill="#000000" d="M 198.5,30.5 C 219.654,30.4839 228.154,40.8172 224,61.5C 217.733,73.1176 208.233,76.9509 195.5,73C 182.237,65.3715 178.737,54.5382 185,40.5C 188.531,35.795 193.031,32.4617 198.5,30.5 Z"/></g>
<g><path style="opacity:0.959" fill="#000000" d="M 596.5,70.5 C 628.791,67.1566 658.457,74.3233 685.5,92C 690.543,95.104 691.71,99.2707 689,104.5C 686.083,108.666 683.416,112.999 681,117.5C 679.818,119.357 678.151,120.357 676,120.5C 667.766,115.631 659.266,111.131 650.5,107C 608.064,92.651 571.231,101.484 540,133.5C 507.34,175.837 507.34,218.171 540,260.5C 570.898,291.598 607.064,299.764 648.5,285C 657.089,280.734 665.422,276.067 673.5,271C 674.833,270.333 676.167,270.333 677.5,271C 681.723,276.224 685.556,281.724 689,287.5C 690.422,290.03 690.755,292.697 690,295.5C 667.597,313.524 641.93,322.19 613,321.5C 555.346,319.515 515.68,291.848 494,238.5C 478.242,185.36 490.075,139.527 529.5,101C 549.115,84.8589 571.449,74.6922 596.5,70.5 Z"/></g>
<g><path style="opacity:0.96" fill="#000000" d="M 1919.5,180.5 C 1919.5,191.167 1919.5,201.833 1919.5,212.5C 1910.38,265.192 1880.38,300.026 1829.5,317C 1776.75,330.077 1732.25,316.577 1696,276.5C 1662.99,231.353 1658.99,183.686 1684,133.5C 1713.19,86.9905 1755.35,66.1572 1810.5,71C 1871.78,82.7762 1908.11,119.276 1919.5,180.5 Z M 1779.5,99.5 C 1827.3,96.3067 1861.8,115.973 1883,158.5C 1899.11,206.229 1887.28,245.396 1847.5,276C 1810.94,298.276 1774.6,297.943 1738.5,275C 1699.58,243.886 1688.41,204.719 1705,157.5C 1720.21,125.81 1745.05,106.477 1779.5,99.5 Z"/></g>
<g><path style="opacity:0.961" fill="#000000" d="M 819.5,73.5 C 822.518,73.3354 825.518,73.502 828.5,74C 830.333,74.5 831.5,75.6667 832,77.5C 864.058,151.95 896.392,226.283 929,300.5C 930.899,304.863 932.399,309.363 933.5,314C 933.223,315.892 932.223,317.225 930.5,318C 858.793,318.83 787.126,318.663 715.5,317.5C 714.059,312.635 714.559,307.969 717,303.5C 750.194,228.249 783.194,152.916 816,77.5C 817.032,75.9733 818.199,74.64 819.5,73.5 Z M 823.5,128.5 C 846.142,181.399 868.809,234.399 891.5,287.5C 846.17,288.667 800.837,288.833 755.5,288C 778.85,235.113 801.517,181.946 823.5,128.5 Z"/></g>
<g><path style="opacity:0.96" fill="#000000" d="M 1048.5,73.5 C 1054.84,73.3338 1061.18,73.5005 1067.5,74C 1068.33,74.8333 1069.17,75.6667 1070,76.5C 1080.74,102.978 1091.74,129.312 1103,155.5C 1114,129.167 1125,102.833 1136,76.5C 1136.83,75.6667 1137.67,74.8333 1138.5,74C 1144.83,73.3333 1151.17,73.3333 1157.5,74C 1158.31,74.3076 1158.97,74.8076 1159.5,75.5C 1191.59,152.022 1223.42,228.689 1255,305.5C 1256.04,308.276 1256.87,311.11 1257.5,314C 1257.56,315.711 1256.89,317.044 1255.5,318C 1247.17,318.667 1238.83,318.667 1230.5,318C 1229.07,317.535 1227.9,316.701 1227,315.5C 1200.86,250.087 1174.53,184.753 1148,119.5C 1137.97,143.934 1128.13,168.434 1118.5,193C 1134.97,233.441 1151.3,273.941 1167.5,314.5C 1167.08,315.672 1166.41,316.672 1165.5,317.5C 1123.87,318.661 1082.21,318.827 1040.5,318C 1038.52,315.503 1038.02,312.669 1039,309.5C 1055.03,270.609 1071.2,231.776 1087.5,193C 1077.81,168.444 1067.97,143.944 1058,119.5C 1031.06,185.053 1004.39,250.72 978,316.5C 977.25,317.126 976.416,317.626 975.5,318C 966.785,318.804 958.118,318.637 949.5,317.5C 948.093,311.866 948.926,306.532 952,301.5C 982.943,227.948 1013.61,154.281 1044,80.5C 1045.01,77.7982 1046.51,75.4649 1048.5,73.5 Z M 1102.5,231.5 C 1111.26,252.202 1119.93,273.035 1128.5,294C 1111.49,294.833 1094.49,294.666 1077.5,293.5C 1085.84,272.804 1094.17,252.138 1102.5,231.5 Z"/></g>
<g><path style="opacity:0.976" fill="#000000" d="M 1288.5,73.5 C 1344.5,73.3333 1400.5,73.5 1456.5,74C 1457,74.5 1457.5,75 1458,75.5C 1458.67,83.8333 1458.67,92.1667 1458,100.5C 1457.5,101 1457,101.5 1456.5,102C 1409.5,102.5 1362.5,102.667 1315.5,102.5C 1315.5,139.5 1315.5,176.5 1315.5,213.5C 1352.83,213.333 1390.17,213.5 1427.5,214C 1428.89,215.171 1429.73,216.671 1430,218.5C 1430.9,226.246 1430.56,233.913 1429,241.5C 1428.25,242.126 1427.42,242.626 1426.5,243C 1389.5,243.5 1352.5,243.667 1315.5,243.5C 1315.5,258.833 1315.5,274.167 1315.5,289.5C 1362.17,289.333 1408.83,289.5 1455.5,290C 1456.33,290.833 1457.17,291.667 1458,292.5C 1458.67,300.167 1458.67,307.833 1458,315.5C 1457.5,316.667 1456.67,317.5 1455.5,318C 1399.83,318.667 1344.17,318.667 1288.5,318C 1288,317.5 1287.5,317 1287,316.5C 1286.83,276.167 1286.67,235.833 1286.5,195.5C 1286.51,154.622 1287.17,113.955 1288.5,73.5 Z"/></g>
<g><path style="opacity:0.969" fill="#000000" d="M 1499.5,73.5 C 1507.51,73.3336 1515.51,73.5003 1523.5,74C 1524.7,74.9025 1525.53,76.0692 1526,77.5C 1526.5,148.166 1526.67,218.833 1526.5,289.5C 1567.17,289.333 1607.83,289.5 1648.5,290C 1649,290.5 1649.5,291 1650,291.5C 1650.67,299.5 1650.67,307.5 1650,315.5C 1649.5,316.667 1648.67,317.5 1647.5,318C 1598.17,318.667 1548.83,318.667 1499.5,318C 1499,317.5 1498.5,317 1498,316.5C 1497.33,236.167 1497.33,155.833 1498,75.5C 1498.72,74.9558 1499.22,74.2891 1499.5,73.5 Z"/></g>
<g><path style="opacity:0.944" fill="#000000" d="M 148.5,123.5 C 166.799,123.298 175.299,132.298 174,150.5C 169.643,163.834 160.476,169.334 146.5,167C 134.005,162.517 128.839,153.683 131,140.5C 133.458,131.207 139.291,125.54 148.5,123.5 Z"/></g>
<g><path style="opacity:0.947" fill="#000000" d="M 234.5,129.5 C 251.643,129.809 260.143,138.476 260,155.5C 256.063,169.422 246.896,175.255 232.5,173C 217.488,166.647 212.988,155.814 219,140.5C 222.746,134.72 227.913,131.054 234.5,129.5 Z"/></g>
<g><path style="opacity:0.949" fill="#000000" d="M 340.5,141.5 C 355.832,141.334 364.499,148.834 366.5,164C 362.154,184.007 350.487,190.007 331.5,182C 321.672,172.986 319.838,162.486 326,150.5C 330.053,146.066 334.886,143.066 340.5,141.5 Z"/></g>
<g><path style="opacity:0.947" fill="#000000" d="M 44.5,147.5 C 65.1661,148.673 72.9994,159.34 68,179.5C 60.2437,191.305 49.7437,194.472 36.5,189C 26.2386,181.384 23.4053,171.551 28,159.5C 31.9273,153.139 37.4273,149.139 44.5,147.5 Z"/></g>
<g><path style="opacity:0.947" fill="#000000" d="M 610.5,172.5 C 631.828,172.825 640.662,183.492 637,204.5C 628.343,219.71 616.176,223.21 600.5,215C 591.167,206.434 589,196.267 594,184.5C 597.892,178.151 603.392,174.151 610.5,172.5 Z"/></g>
<g><path style="opacity:0.947" fill="#000000" d="M 1789.5,172.5 C 1808.64,172.144 1817.81,181.477 1817,200.5C 1813.19,214.498 1804.02,220.664 1789.5,219C 1775.17,214.843 1769,205.343 1771,190.5C 1773.79,180.875 1779.96,174.875 1789.5,172.5 Z"/></g>
<g><path style="opacity:0.95" fill="#000000" d="M 128.5,208.5 C 149.405,206.352 158.905,215.685 157,236.5C 149.545,251.874 138.045,255.708 122.5,248C 110.5,236 110.5,224 122.5,212C 124.727,211.059 126.727,209.892 128.5,208.5 Z"/></g>
<g><path style="opacity:0.949" fill="#000000" d="M 263.5,208.5 C 279.1,207.769 288.1,215.103 290.5,230.5C 286.101,250.367 274.434,256.533 255.5,249C 245.694,239.957 243.861,229.457 250,217.5C 253.528,212.834 258.028,209.834 263.5,208.5 Z"/></g>
<g><path style="opacity:0.949" fill="#000000" d="M 198.5,261.5 C 217.81,261.644 226.31,271.311 224,290.5C 216.645,305.285 205.478,309.119 190.5,302C 177.167,289.667 177.167,277.333 190.5,265C 193.158,263.522 195.825,262.355 198.5,261.5 Z"/></g>
<g><path style="opacity:0.948" fill="#000000" d="M 297.5,309.5 C 314.643,309.809 323.143,318.476 323,335.5C 316.993,352.956 305.493,357.789 288.5,350C 279.12,341.824 276.953,331.99 282,320.5C 285.746,314.72 290.913,311.054 297.5,309.5 Z"/></g>
<g><path style="opacity:0.948" fill="#000000" d="M 102.5,311.5 C 119.006,309.521 128.339,316.687 130.5,333C 127.582,351.802 116.915,358.468 98.5,353C 87.0719,345.464 83.9052,335.297 89,322.5C 92.2132,317.107 96.7132,313.441 102.5,311.5 Z"/></g>
</svg>
