<?xml version="1.0" encoding="utf-8"?>
<!-- Generator: Adobe Illustrator 24.1.2, SVG Export Plug-In . SVG Version: 6.00 Build 0)  -->
<svg version="1.1" id="Camada_1" xmlns="http://www.w3.org/2000/svg" xmlns:xlink="http://www.w3.org/1999/xlink" x="0px" y="0px"
	 viewBox="0 0 1920 1080" style="enable-background:new 0 0 1920 1080;" xml:space="preserve">
<style type="text/css">
	.st0{fill:#FFFFFF;}
</style>
<g>
	<path class="st0" d="M1125.1,712.8c0.1,0.7,0.2,1.5,0.4,2.2c3.1,14,8,27.3,14.7,40c12.2,23.3,29.2,42.4,50.8,57.2
		c18.8,13,39.5,21.5,62,25.6c20.5,3.8,40.9,3.5,61.3-0.8c17.7-3.7,34.4-10.2,49.9-19.6c26.9-16.3,47.3-38.6,61.1-66.8
		c11.7-23.9,17.2-49.2,16.2-75.9c-1.2-30.7-10.2-59-27.7-84.2c-28.4-40.8-67.7-63.8-117.1-69.1c-26.6-2.9-52.4,1.4-77,11.9
		c-7.3,3.1-14.2,7.1-21.2,10.7c-6.7,3.4-14.5,1.4-17.9-4.6c-3.7-6.4-1.6-14.4,4.9-18.4c9.5-5.7,19.4-10.6,29.7-14.4
		c23-8.6,46.7-12.9,71.3-12.2c20.4,0.5,40.1,4.3,59.2,11.2c19.9,7.2,37.9,17.6,54.3,30.9c17.6,14.4,32,31.4,43.2,51
		c17.8,31.1,26.1,64.5,24.7,100.4c-0.8,22.4-5.5,44-14.2,64.6c-15.6,36.7-40.2,65.6-74.2,86.6c-19.9,12.3-41.5,20.5-64.5,24.7
		c-19.9,3.6-39.9,4-59.9,1.1c-26-3.8-50.1-12.6-72.4-26.5c-14.7-9.2-27.7-20.3-39.4-33.1c-12-13.1-21.6-27.8-29.3-43.6
		c-7.3-15-12.4-30.8-15.5-47.2c-0.6-3-0.8-3.2-3.9-3.2c-10.3,0-20.6,0-30.9,0c-2.1,0-3.4,0.8-4.5,2.6c-1.6,2.5-3.4,4.9-5.3,7.1
		c-4,4.6-8.5,8.7-13.7,11.9c-6.4,3.8-14,2-18-4c-3.9-5.7-2.4-13.4,3.3-17.9c0.8-0.6,1.6-1.2,2.4-1.8c7.7-5.9,12.6-13.4,14.2-23.1
		c4-23.1-16.1-44.4-39.3-41.4c-13.9,1.8-24,9.3-29.2,22.3c-5.2,13-3,25.3,5.7,36.3c1,1.2,2.3,2.1,3.8,3.6c0.8-1.7,1.3-2.9,1.8-4.1
		c2.6-6.8,5.1-13.7,7.8-20.5c3.3-8.2,12.6-11.2,19.6-6.6c4.7,3.1,7.6,9.7,5,16.4c-7.9,20.4-15.6,41-23.4,61.4
		c-0.5,1.2-0.9,2.5-1.5,4.2c2.2,0.2,3.8,0.2,5.5,0.4c10.5,1.2,15.7,12.7,9.6,21.2c-2.8,3.9-6.8,5.5-11.6,5.5c-18.3,0-36.7,0-55,0
		c-1,0-2,0-3-0.1c-6.4-0.7-11.3-5.7-11.8-11.9c-0.5-6.7,3.3-12.3,9.6-14.1c1.6-0.5,3.4-0.6,5.1-0.7c6.6-0.1,13.1-0.1,19.7,0
		c2.3,0,3.6-0.6,4.4-2.9c2.3-6.5,4.9-13,7.4-19.4c0.3-0.8,0.5-1.6,0.6-2.3c-0.3-0.4-0.4-0.6-0.5-0.8c-0.4-0.3-0.8-0.6-1.2-0.9
		c-12.9-9.1-21.3-21.3-25.2-36.5c-0.5-2.1-1.6-3.8-3.1-5.4c-12.7-13.5-25.4-27.1-38.1-40.7c-15.8-16.9-31.5-34-47.3-50.9
		c-25.2-27-50.4-53.9-75.6-80.9c-15.6-16.7-31.1-33.4-46.6-50c-1.1-1.1-2.2-2.2-3.7-3.7c-0.7,1.5-1.2,2.4-1.6,3.4
		c-7.9,20.7-15.9,41.4-23.8,62c-8.3,21.6-16.5,43.3-24.8,64.9c-6.9,18.2-13.9,36.3-20.9,54.5c-3.2,8.3-6.3,16.7-9.6,25
		c-2.4,6.1-8,9.7-13.9,9.1c-8.6-1-13.9-9-11.3-17.3c1.2-3.8,2.8-7.4,4.2-11.1c0.4-0.9,0.5-2,0.9-3.6c-1.9,0.6-3.1,0.9-4.2,1.4
		c-17.2,6.9-24.5,28-15.4,44.1c6.9,12.2,20.5,18.2,34.2,15.1c13.2-2.9,23.1-14.5,24.1-28.2c0.1-1.7,0.2-3.5,0.6-5.2
		c1.4-6.6,8.1-11.2,14.8-10c7.3,1.3,11.7,6.8,11.3,14.6c-0.4,8.6-2.4,16.9-6.3,24.6c-17,33.3-62.4,43.2-91.8,14.9
		c-22.2-21.4-23.3-56.3-2.9-79.4c11.4-12.8,25.9-19.1,43-19.5c3.5-0.1,3.5-0.1,4.8-3.3c6-15.6,12-31.2,17.9-46.8
		c0.4-1.1,0.7-2.3,1.2-3.6c-1.3-0.4-2.2-0.8-3.1-0.9c-4.7-0.6-9.3-1.4-14-1.7c-23.3-1.4-45.3,3.6-65,16
		c-37.9,23.8-56.8,58.4-55.6,103.3c0.6,23.9,8.7,45.4,23.4,64.2c20.6,26.5,47.8,41.4,81.4,44.4c23.7,2.1,45.9-2.8,66.4-14.9
		c30.5-17.9,49.1-44.4,55.5-79.2c4.8-26.1,0.5-51-12.2-74.4c-5.3-9.8-11.9-18.6-19.8-26.3c-2.1-2-3.9-4.2-4.8-7
		c-1.7-5.2,0.1-11.1,4.4-14.4c4.5-3.4,10.8-4,15.3-0.6c3.2,2.4,6.1,5.4,8.8,8.4c23.1,25.6,35.3,55.7,36.5,90
		c1.1,31.4-7.5,60.2-25.8,86c-18.7,26.3-43.5,44.2-74.3,53.5c-31.6,9.5-63,8.1-93.6-4.4c-34.2-14-59.1-38-74.9-71.3
		c-9.3-19.7-13.5-40.6-12.9-62.4c0.7-28.3,9-54.1,25.2-77.3c16.4-23.5,38.1-40.5,64.8-50.8c24.9-9.6,50.5-11.8,76.7-7
		c2.4,0.4,4.8,0.9,7.1,1.3c2.1-3.3,6.4-14.7,6.5-17.7c-0.9-0.3-1.7-0.6-2.7-0.9c-18.5-4.4-37.2-5.4-56.1-3.1
		c-31.2,3.8-59,15.7-83.1,35.9c-29.7,24.9-48.2,56.5-55.1,94.7c-6.4,35.9-1.3,70.2,15.8,102.3c22.8,42.7,58.1,69.9,105,81.4
		c26.4,6.5,52.8,5.7,79-1.6c25.5-7,47.7-19.7,67-37.7c16.8-15.7,29.5-34.3,38.3-55.6c8.1-19.6,12-40.1,12-61.2
		c0-11.3-1.3-22.5-3.8-33.5c-6.9-31.2-21.8-58-44.6-80.3c-5.8-5.7-12.4-10.7-18.8-15.7c-7.2-5.7-7.8-15.7-1-21.2
		c5-4.1,11.6-4,17.5,0.4c24.5,18,43.9,40.4,57.4,67.6c19.1,38.6,24.5,79.3,15.7,121.5c-8.4,40.3-28.3,74.2-59.2,101.6
		c-17.4,15.5-37.1,27.2-59,35.2c-23.1,8.4-46.9,12.2-71.5,11.2c-19.8-0.8-39.1-4.5-57.7-11.5c-20.9-7.8-39.7-19-56.6-33.5
		c-16-13.8-29.3-29.9-39.9-48.1c-7.9-13.7-13.9-28.2-18.2-43.4c-4.6-16.6-6.9-33.5-6.8-50.7c0.1-20.6,3.5-40.7,10.3-60.1
		c7.4-21.3,18.3-40.6,32.7-57.9c17.9-21.4,39.5-38.1,64.8-49.9c24.3-11.4,49.9-17,76.6-17.3c16.3-0.2,32.4,1.6,48.2,5.8
		c1.2,0.3,2.6,0.3,3.7,0.5c6-13.1,47.8-123.6,48-127.1c-4.1-0.7-8.2-1.5-12.3-2.2c-1.6-0.3-3.2-0.5-4.8-0.8
		c-8.5-1.9-12.8-9.1-10.2-17.5c2.1-6.6,4.6-13.1,6.9-19.6c12.9-36.4,25.7-72.9,38.6-109.3c0.2-0.7,0.5-1.4,0.8-2.1
		c2.5-6.2,6.4-9,13.1-9.1c15-0.1,30,0,45,0c0.6,0,1.2,0,1.9,0.1c5.6,0.6,10.1,4.7,11.5,10.2c1.3,5.3-1,10.8-5.6,13.9
		c-2.6,1.7-5.5,2.2-8.5,2.2c-10.3,0-20.6,0-30.9,0c-4.7,0-4.3-0.3-6,4.3c-0.2,0.6-0.4,1.2-0.6,1.7c-7,19.8-14,39.7-21,59.5
		c-4.5,12.7-9,25.4-13.5,38.2c-0.4,1.2-0.7,2.5-1.1,4c1.9,0.4,3.4,0.6,4.8,0.9c7,1.2,13.9,2.3,20.8,3.7c5.5,1.1,9.3,5.6,10,11.1
		c0.7,5.4-1.9,11.3-7,13.1c-3.9,1.4-5.3,3.9-6.4,7.3c-0.7,2.1-1.6,4.2-2.4,6.3c-0.3,0.8-0.3,1.6-0.5,2.3c0.4,0.4,0.6,0.6,0.8,0.7
		c104.7,27.9,209.4,55.8,314.2,83.7c1.1,0.3,2.2,0.4,3.3,0.6c0.1,0,0.2,0,0.4-0.1c0.1,0,0.2-0.1,0.3-0.2c2.6-4.3,9.8-22.9,9.8-25.8
		c-1.2,0-2.4,0-3.6,0c-13.1,0-26.3,0-39.4,0c-2.2,0-4.5-0.2-6.6-0.8c-5.1-1.4-8.2-5.1-9.1-10.2c-0.9-5.1,0.8-9.5,5.1-12.8
		c3-2.3,6.5-2.8,10.2-2.8c33,0,65.9,0,98.9,0c0.9,0,1.7-0.1,2.6,0c1.7,0.1,2.8-0.6,3.6-2c1.2-2,2.4-4,3.6-6.1
		c2.4-4,4.7-8.2,7.3-12.1c4.5-6.6,13.7-7.6,19.6-2.4c4.8,4.3,5.8,10.9,2.3,16.9c-4.9,8.5-9.9,16.9-15,25.2c-1.1,1.7-2.7,3.3-4.3,4.5
		c-2.8,2.1-6.2,2.4-9.6,2.4c-10.7,0-21.3,0-32,0c-4,0-4,0-5.6,3.9c-4.2,10.4-8.4,20.9-12.7,31.4c-1.5,3.8-1.6,3.8,1.4,6.7
		c8.8,8.5,17.6,17.1,26.4,25.6c10,9.8,20.1,19.5,30.1,29.3c12.6,12.2,25.3,24.5,37.9,36.7c14.8,14.4,29.7,28.8,44.5,43.2
		c0.9,0.9,2,1.7,2.9,2.4c0.6-0.2,0.9-0.3,1.1-0.4c0.4-0.2,0.9-0.5,1.3-0.7c13-7.9,27-10.8,42.1-8.4c28.3,4.5,51.5,28.4,51.5,60.5
		c0,29.1-19.7,52.1-45.2,59c-25.5,6.9-52.9-3.3-67.3-25.5c-1.2-1.9-2.5-2.7-4.8-2.7c-16.6,0.1-33.2,0.1-49.8,0.1
		c-0.8,0-1.6,0.3-2.7,0.5c0.4,1.4,0.6,2.6,1,3.8c9.5,28.2,27,49.8,53,64.4c22,12.4,45.7,16.8,70.6,13.7c23.7-3,44.5-12.7,62-28.8
		c22.4-20.6,34.9-46.2,37.1-76.6c1.4-19.8-2-38.8-10.6-56.7c-11.7-24.3-29.6-42.5-54-54.2c-24.6-11.8-50.3-14.4-76.8-7.9
		c-6.7,1.7-13.2,4.3-19.7,6.6c-8.3,3-16.9-2-18-10.7c-0.7-5.7,2.4-11.3,8-13.8c8.2-3.6,16.6-6.5,25.3-8.4
		c35.9-7.9,70.2-3.5,101.9,15.2c43,25.3,66.5,63.4,70.3,113.2c2.1,27.6-4,53.7-17.8,77.8c-30.8,53.9-90.2,81-151.1,68.8
		c-28.9-5.8-53.5-19.7-73.8-41.1c-16.8-17.7-28.2-38.5-34.3-62.1c-1-4-1-4-5.2-4c-3.6,0-7.2-0.1-10.8,0c-1.5,0-2.9,0.1-4.4,0.2
		C1125.2,712.3,1125.1,712.6,1125.1,712.8z M744.5,436.3c-0.6,1.8,0.7,2.7,1.7,3.8c6.2,6.7,12.5,13.4,18.7,20.1
		c19.9,21.4,39.8,42.8,59.8,64.1c16.9,18.1,33.9,36.1,50.8,54.2c20.3,21.7,40.5,43.5,60.7,65.3c3.6,3.9,7.3,7.8,10.9,11.7
		c0.3,0.3,0.8,0.5,1.5,1c0.6-1.2,1.2-2.3,1.7-3.3c7.7-15.5,19.7-26.2,36-31.9c9.4-3.3,19.1-4.2,28.9-2.7c0.5,0.1,1,0.1,1.5,0.2
		c4.2,0.6,4.2,0.6,5.7-3.2c14.7-36.5,29.4-73,44-109.6c0.5-1.2,0.9-2.5,1.3-3.7c-2.9-1.9-312.8-84.2-317.1-84.5
		C748.7,424.1,746.6,430.2,744.5,436.3z M1219.8,679.2c0.3-9.4,2.6-18.3,6.9-26.8c1.5-3,1.5-3.1-0.8-5.4
		c-11.2-10.9-22.4-21.7-33.6-32.6c-0.4-0.4-0.9-0.8-1.8-1.4c-0.9,1.2-1.8,2.1-2.5,3.2c-8.2,12.1-14,25.3-17.2,39.6
		c-1.1,5.2-3.9,9.1-9,10.9c-9.5,3.3-18.8-4.5-17.1-14.5c1-5.7,2.7-11.3,4.5-16.8c4.5-14.2,11.6-27,20.4-39c0.4-0.5,0.7-1,1-1.5
		c0.1-0.2,0.1-0.5,0.3-1.2c-4.3-4.2-8.8-8.5-13.4-13c-0.9,0.8-1.6,1.3-2.1,1.9c-15.2,19.6-25.2,41.6-30.4,65.9
		c-0.4,1.9-0.7,3.9-1.1,5.8c-1.4,6.8-7.4,11.2-14.5,10.6c-6.6-0.6-11.7-6.2-11.6-13.2c0-2.7,0.6-5.4,1.2-8.1c6-28.9,18-55,36.2-78.2
		c0.7-0.9,1.3-1.8,2-2.7c0.1-0.2,0.2-0.5,0.5-1.3c-15.1-14.9-30.5-29.8-46.2-44.9c-0.7,1.2-1.2,1.9-1.5,2.6
		c-14.5,36.1-29,72.2-43.4,108.3c-1.4,3.6-1.4,3.5,1.6,6.2c13.6,12.4,20.6,27.9,21,46.3c0,1.4,0,2.9,0,4.7c50.4,0,100.4,0,150.8,0
		C1219.8,682.6,1219.8,680.9,1219.8,679.2z M1281,645.8c-20.4,0.1-34.9,16.6-34.6,35.3c0.3,18.9,16.1,34.4,34.9,34.3
		c19-0.1,34.8-16.1,34.6-35C1316,662.4,1301.6,645.7,1281,645.8z"/>
</g>
</svg>
