<?xml version="1.0" encoding="UTF-8"?>
<!DOCTYPE svg PUBLIC "-//W3C//DTD SVG 1.1//EN" "http://www.w3.org/Graphics/SVG/1.1/DTD/svg11.dtd">
<svg xmlns="http://www.w3.org/2000/svg" version="1.1" width="1081px" height="1080px" style="shape-rendering:geometricPrecision; text-rendering:geometricPrecision; image-rendering:optimizeQuality; fill-rule:evenodd; clip-rule:evenodd" xmlns:xlink="http://www.w3.org/1999/xlink">
<g><path style="opacity:0.991" fill="#fefffe" d="M 201.5,-0.5 C 427.5,-0.5 653.5,-0.5 879.5,-0.5C 956.663,9.18744 1014.83,47.5208 1054,114.5C 1068.43,141.57 1077.26,170.237 1080.5,200.5C 1080.5,426.5 1080.5,652.5 1080.5,878.5C 1070.81,955.663 1032.48,1013.83 965.5,1053C 938.43,1067.43 909.763,1076.26 879.5,1079.5C 653.5,1079.5 427.5,1079.5 201.5,1079.5C 124.337,1069.81 66.1708,1031.48 27,964.5C 12.6867,937.558 4.02,908.892 1,878.5C 0.333333,652.5 0.333333,426.5 1,200.5C 12.0624,113.795 57.2291,52.2946 136.5,16C 157.531,7.4927 179.198,1.9927 201.5,-0.5 Z M 554.5,45.5 C 590.695,44.3526 620.195,57.6859 643,85.5C 672.13,128.285 671.463,170.618 641,212.5C 630.051,223.789 618.217,233.956 605.5,243C 554.199,289.437 526.366,347.271 522,416.5C 514.2,460.968 488.7,489.801 445.5,503C 400.866,511.793 364.699,498.293 337,462.5C 310.45,418.852 312.783,376.852 344,336.5C 354.523,326.497 365.69,317.33 377.5,309C 429.049,262.395 456.883,204.228 461,134.5C 471.274,82.7225 502.441,53.0558 554.5,45.5 Z M 666.5,202.5 C 670.117,242.184 682.45,279.017 703.5,313C 651.743,295.35 606.909,306.183 569,345.5C 564.943,350.558 561.276,355.892 558,361.5C 556.537,353.543 555.871,345.543 556,337.5C 573.549,294.626 601.383,260.126 639.5,234C 650.509,225.1 659.509,214.6 666.5,202.5 Z M 648.5,318.5 C 674.72,317.52 698.386,324.687 719.5,340C 786.122,374.056 854.788,378.723 925.5,354C 980.682,346.001 1019.85,367.168 1043,417.5C 1057.53,463.549 1046.7,502.383 1010.5,534C 969.085,562.291 927.419,562.624 885.5,535C 831.506,506.858 774.506,498.191 714.5,509C 705.363,511.601 696.363,514.601 687.5,518C 635.51,530.571 595.343,514.404 567,469.5C 544.866,421.132 553.033,378.632 591.5,342C 608.279,328.606 627.279,320.772 648.5,318.5 Z M 315.5,349.5 C 316.043,349.56 316.376,349.893 316.5,350.5C 294.612,399.702 301.112,444.702 336,485.5C 341.209,490.378 346.709,494.878 352.5,499C 344.5,499.667 336.5,499.667 328.5,499C 283.719,475.219 249.219,441.052 225,396.5C 218.205,389.338 211.038,382.505 203.5,376C 243.157,376.374 280.49,367.54 315.5,349.5 Z M 120.5,368.5 C 155.797,365.742 185.63,377.075 210,402.5C 217.726,413.228 225.059,424.228 232,435.5C 265.56,481.054 309.393,512.554 363.5,530C 374.412,532.464 385.412,534.464 396.5,536C 438.435,546.935 464.601,573.435 475,615.5C 481.835,665.996 463.002,703.496 418.5,728C 371.303,746.762 330.469,737.596 296,700.5C 262.417,639.262 212.251,598.095 145.5,577C 134.662,573.899 123.662,571.566 112.5,570C 69.3382,558.506 42.8382,531.006 33,487.5C 27.6018,434.779 48.7684,397.279 96.5,375C 104.459,372.179 112.459,370.013 120.5,368.5 Z M 786.5,515.5 C 815.261,518.357 842.595,526.19 868.5,539C 882.672,547.254 897.005,555.254 911.5,563C 922.903,567.681 934.57,570.014 946.5,570C 917.958,585.216 891.625,603.549 867.5,625C 861.967,630.198 856.8,635.698 852,641.5C 854.152,588.944 830.986,552.777 782.5,533C 777.543,531.511 772.543,530.178 767.5,529C 774.014,524.637 780.347,520.137 786.5,515.5 Z M 725.5,535.5 C 777.025,532.663 813.191,554.663 834,601.5C 838.353,612.932 840.52,624.765 840.5,637C 830.382,709.034 847.215,773.867 891,831.5C 904.364,843.858 915.03,858.192 923,874.5C 940.38,921.48 930.546,961.646 893.5,995C 855.703,1022.21 816.37,1024.54 775.5,1002C 745.052,981.277 729.052,952.443 727.5,915.5C 736.952,845.643 721.452,781.976 681,724.5C 671.63,714.798 662.63,704.798 654,694.5C 630.378,655.59 630.711,616.923 655,578.5C 672.675,554.581 696.175,540.247 725.5,535.5 Z M 552.5,680.5 C 601.035,680.5 635.202,702.5 655,746.5C 669.082,790.338 659.582,828.171 626.5,860C 610.76,872.866 592.76,880.866 572.5,884C 502.824,886.932 443.658,913.098 395,962.5C 387.01,975.165 377.51,986.665 366.5,997C 322.5,1029.67 278.5,1029.67 234.5,997C 203.235,967.949 192.568,932.615 202.5,891C 213.846,855.654 237.18,832.32 272.5,821C 295.597,818.522 318.597,815.189 341.5,811C 399.72,796.061 446.554,764.561 482,716.5C 501.008,695.58 524.508,683.58 552.5,680.5 Z M 281.5,702.5 C 311.559,741.7 351.225,757.533 400.5,750C 411.136,747.616 421.136,744.449 430.5,740.5C 427.215,747.572 423.548,754.405 419.5,761C 377.456,789.903 330.789,805.236 279.5,807C 270.964,808.845 262.797,811.678 255,815.5C 267.806,788.632 276.14,760.298 280,730.5C 281.128,721.2 281.628,711.866 281.5,702.5 Z M 671.5,752.5 C 677.642,756.809 683.642,761.309 689.5,766C 710.793,810.428 718.126,857.094 711.5,906C 711.645,916.993 712.978,927.826 715.5,938.5C 683.976,915.41 648.976,899.91 610.5,892C 657.782,865.951 679.282,825.784 675,771.5C 673.895,765.14 672.728,758.807 671.5,752.5 Z"/></g>
<g><path style="opacity:0.98" fill="#fefffe" d="M 551.5,88.5 C 579.402,85.3689 600.569,95.7023 615,119.5C 627.2,147.159 622.7,171.659 601.5,193C 574.622,212.601 547.956,212.268 521.5,192C 500.474,169.338 496.974,144.171 511,116.5C 520.866,101.824 534.366,92.4909 551.5,88.5 Z"/></g>
<g><path style="opacity:0.981" fill="#fefffe" d="M 412.5,344.5 C 437.281,342.465 456.781,351.465 471,371.5C 486.126,399.906 482.626,425.739 460.5,449C 437.312,466.345 412.978,468.011 387.5,454C 365.536,437.451 357.369,415.618 363,388.5C 370.933,364.06 387.433,349.394 412.5,344.5 Z"/></g>
<g><path style="opacity:0.98" fill="#fefffe" d="M 646.5,361.5 C 688.117,359.624 711.45,379.291 716.5,420.5C 714.68,451.151 699.013,470.651 669.5,479C 637.496,483.751 614.663,471.585 601,442.5C 592.195,414.873 598.695,391.706 620.5,373C 628.438,367.307 637.104,363.473 646.5,361.5 Z"/></g>
<g><path style="opacity:0.981" fill="#fefffe" d="M 936.5,394.5 C 963.99,391.498 985.157,401.498 1000,424.5C 1013.56,455.416 1007.39,481.583 981.5,503C 958.846,516.997 936.179,516.997 913.5,503C 891.983,486.119 884.15,464.285 890,437.5C 897.405,414.256 912.905,399.923 936.5,394.5 Z"/></g>
<g><path style="opacity:0.981" fill="#fefffe" d="M 126.5,410.5 C 151.594,409.131 171.094,418.797 185,439.5C 198.271,466.738 194.771,491.572 174.5,514C 155.06,530.286 133.393,533.952 109.5,525C 82.5701,510.977 71.0701,488.81 75,458.5C 82.0965,431.566 99.2632,415.566 126.5,410.5 Z"/></g>
<g><path style="opacity:0.981" fill="#fefffe" d="M 364.5,576.5 C 399.23,573.603 422.063,588.603 433,621.5C 438.48,653.709 426.647,676.875 397.5,691C 366.257,700.809 341.423,692.309 323,665.5C 308.223,632.437 315.39,605.27 344.5,584C 351.021,580.775 357.688,578.275 364.5,576.5 Z"/></g>
<g><path style="opacity:0.98" fill="#fefffe" d="M 730.5,577.5 C 755.986,575.828 775.82,585.494 790,606.5C 803.54,634.355 799.707,659.522 778.5,682C 759.13,697.376 737.797,700.709 714.5,692C 687.569,677.975 676.069,655.809 680,625.5C 686.975,599.022 703.809,583.022 730.5,577.5 Z"/></g>
<g><path style="opacity:0.981" fill="#fefffe" d="M 549.5,723.5 C 585.014,720.987 607.847,736.654 618,770.5C 622.365,801.606 610.532,824.106 582.5,838C 553.213,847.791 529.046,840.624 510,816.5C 499.339,797.986 497.672,778.653 505,758.5C 514.139,739.521 528.972,727.855 549.5,723.5 Z"/></g>
<g><path style="opacity:0.981" fill="#fefffe" d="M 824.5,855.5 C 861.235,856.074 882.735,874.407 889,910.5C 889.837,939.002 877.337,959.168 851.5,971C 821.597,980.325 797.43,972.492 779,947.5C 768.84,928.326 767.84,908.66 776,888.5C 786.55,869.149 802.716,858.149 824.5,855.5 Z"/></g>
<g><path style="opacity:0.981" fill="#fefffe" d="M 292.5,859.5 C 317.979,857.824 337.812,867.49 352,888.5C 365.271,915.732 361.771,940.566 341.5,963C 321.241,979.648 298.907,982.982 274.5,973C 243.835,954.683 234.335,928.516 246,894.5C 255.85,875.175 271.35,863.508 292.5,859.5 Z"/></g>
</svg>
