<?xml version="1.0" encoding="UTF-8"?>
<!DOCTYPE svg PUBLIC "-//W3C//DTD SVG 1.1//EN" "http://www.w3.org/Graphics/SVG/1.1/DTD/svg11.dtd">
<svg xmlns="http://www.w3.org/2000/svg" version="1.1" width="1081px" height="1080px" style="shape-rendering:geometricPrecision; text-rendering:geometricPrecision; image-rendering:optimizeQuality; fill-rule:evenodd; clip-rule:evenodd" xmlns:xlink="http://www.w3.org/1999/xlink">
<g><path style="opacity:0.997" fill="#16a3af" d="M 200.5,-0.5 C 426.833,-0.5 653.167,-0.5 879.5,-0.5C 964.415,10.9311 1025.25,55.2645 1062,132.5C 1072.58,157.938 1078.75,184.272 1080.5,211.5C 1080.5,430.167 1080.5,648.833 1080.5,867.5C 1074.44,945.478 1038.78,1005.64 973.5,1048C 944.313,1065.23 912.98,1075.73 879.5,1079.5C 653.167,1079.5 426.833,1079.5 200.5,1079.5C 114.978,1068.16 53.8116,1023.49 17,945.5C 7.84446,923.209 2.01112,900.209 -0.5,876.5C -0.5,651.833 -0.5,427.167 -0.5,202.5C 8.84436,123.61 47.8444,64.4433 116.5,25C 143.058,11.3105 171.058,2.81049 200.5,-0.5 Z"/></g>
<g><path style="opacity:1" fill="#eec94f" d="M 550.5,51.5 C 603.048,49.8363 639.215,73.1696 659,121.5C 670.855,166.591 659.355,204.425 624.5,235C 569.299,275.518 535.466,329.684 523,397.5C 525.231,441.542 508.065,475.375 471.5,499C 428.83,520.4 388.83,516.4 351.5,487C 319.338,454.851 310.172,417.018 324,373.5C 334.43,349.4 350.93,330.567 373.5,317C 418.547,277.429 446.38,227.929 457,168.5C 455.387,130.637 468.553,99.1366 496.5,74C 512.571,61.7033 530.571,54.2033 550.5,51.5 Z"/></g>
<g><path style="opacity:1" fill="#18a3af" d="M 553.5,94.5 C 589.088,93.6143 611.254,110.281 620,144.5C 622.48,171.373 612.313,191.873 589.5,206C 555.731,220.185 528.897,212.019 509,181.5C 495.233,148.478 503.066,121.978 532.5,102C 539.295,98.571 546.295,96.071 553.5,94.5 Z"/></g>
<g><path style="opacity:1" fill="#ec6842" d="M 665.5,208.5 C 669.408,237.786 677.241,266.12 689,293.5C 693.58,302.328 698.413,310.995 703.5,319.5C 652.563,301.723 608.063,312.056 570,350.5C 565.279,356.221 560.946,362.221 557,368.5C 555.303,359.895 554.636,351.229 555,342.5C 573.203,298.629 602.037,263.462 641.5,237C 651.215,228.799 659.215,219.299 665.5,208.5 Z"/></g>
<g><path style="opacity:1" fill="#eec94f" d="M 644.5,324.5 C 662.834,323.285 680.5,326.119 697.5,333C 724.221,350.523 753.221,362.856 784.5,370C 821.982,377.802 859.316,377.135 896.5,368C 908.16,363.507 920.16,360.174 932.5,358C 975.843,354.094 1009.68,369.927 1034,405.5C 1054.7,442.283 1054.37,478.95 1033,515.5C 1009.6,548.783 977.428,564.283 936.5,562C 929.746,561.097 923.079,559.763 916.5,558C 898.919,549.876 881.586,541.209 864.5,532C 814.068,510.757 762.068,505.757 708.5,517C 691.438,524.557 673.605,528.724 655,529.5C 609.853,526.77 578.187,504.77 560,463.5C 544.104,411.518 558.27,370.018 602.5,339C 615.647,331.23 629.647,326.397 644.5,324.5 Z"/></g>
<g><path style="opacity:1" fill="#18a3af" d="M 408.5,351.5 C 434.482,348.425 454.982,357.425 470,378.5C 484.895,407.504 480.728,433.337 457.5,456C 433.045,473.52 408.379,473.853 383.5,457C 356.709,431.435 353.543,403.269 374,372.5C 383.457,362.027 394.957,355.027 408.5,351.5 Z"/></g>
<g><path style="opacity:1" fill="#ec6842" d="M 315.5,354.5 C 316.239,354.369 316.906,354.536 317.5,355C 300.503,388.085 299.003,421.918 313,456.5C 321.427,476.587 334.593,492.754 352.5,505C 343.833,505.667 335.167,505.667 326.5,505C 292.463,487.299 264.296,462.799 242,431.5C 232.165,411.994 218.665,395.494 201.5,382C 232.43,381.845 262.43,376.512 291.5,366C 299.987,362.921 307.987,359.088 315.5,354.5 Z"/></g>
<g><path style="opacity:1" fill="#18a3af" d="M 647.5,367.5 C 682.199,366.392 704.366,382.392 714,415.5C 717.708,449.609 703.541,472.442 671.5,484C 640.255,490.046 617.088,479.212 602,451.5C 590.729,420.316 598.563,395.149 625.5,376C 632.607,372.248 639.94,369.415 647.5,367.5 Z"/></g>
<g><path style="opacity:1" fill="#eec94f" d="M 124.5,373.5 C 158.893,372.455 187.726,384.455 211,409.5C 221.834,427.332 233.834,444.332 247,460.5C 280.287,496.733 320.454,522.233 367.5,537C 400.958,537.987 429.125,550.487 452,574.5C 478.097,607.674 483.43,644.007 468,683.5C 446.345,725.925 411.511,746.092 363.5,744C 323.611,738.104 295.111,716.937 278,680.5C 235.294,621.038 177.461,585.871 104.5,575C 63.2503,561.416 38.7503,533.249 31,490.5C 27.1493,444.7 44.6493,409.867 83.5,386C 96.5017,379.173 110.168,375.007 124.5,373.5 Z"/></g>
<g><path style="opacity:1" fill="#18a3af" d="M 937.5,400.5 C 972.702,398.895 995.202,414.895 1005,448.5C 1008.3,482.753 993.799,505.586 961.5,517C 924.611,522.648 900.445,507.815 889,472.5C 885.034,434.727 901.201,410.727 937.5,400.5 Z"/></g>
<g><path style="opacity:1" fill="#18a3af" d="M 121.5,417.5 C 157.683,414.874 180.85,430.874 191,465.5C 193.354,507.474 173.687,530.807 132,535.5C 102.547,533.041 83.5467,517.707 75,489.5C 70.6339,452.546 86.1339,428.546 121.5,417.5 Z"/></g>
<g><path style="opacity:1" fill="#ec6842" d="M 784.5,521.5 C 816.333,524.125 846.333,532.958 874.5,548C 886.004,554.92 897.671,561.586 909.5,568C 921.571,573.481 934.238,576.148 947.5,576C 917.008,592.165 889.008,611.831 863.5,635C 858.966,639.199 854.799,643.699 851,648.5C 852.019,587.859 823.186,550.026 764.5,535C 771.617,531.028 778.284,526.528 784.5,521.5 Z"/></g>
<g><path style="opacity:1" fill="#eec94f" d="M 725.5,540.5 C 769.698,538.18 803.531,555.513 827,592.5C 833.939,604.985 838.273,618.318 840,632.5C 838.016,653.753 837.349,675.087 838,696.5C 841.029,747.264 857.696,792.931 888,833.5C 897.376,843.874 906.376,854.54 915,865.5C 939.508,908.868 936.508,950.201 906,989.5C 872.551,1023.08 833.384,1031.92 788.5,1016C 748.461,996.607 727.794,964.607 726.5,920C 735.805,847.951 718.638,783.118 675,725.5C 639.164,693.655 627.83,654.655 641,608.5C 656.68,570.252 684.846,547.585 725.5,540.5 Z"/></g>
<g><path style="opacity:1" fill="#18a3af" d="M 365.5,582.5 C 399.314,581.166 421.48,596.499 432,628.5C 436.163,653.689 428.33,674.189 408.5,690C 394.532,699.331 379.199,702.664 362.5,700C 336.783,693.616 321.283,677.45 316,651.5C 313.743,614.938 330.243,591.938 365.5,582.5 Z"/></g>
<g><path style="opacity:1" fill="#18a3af" d="M 726.5,584.5 C 762.723,581.925 785.889,597.925 796,632.5C 798.788,670.031 781.955,693.198 745.5,702C 709.037,703.196 686.87,686.029 679,650.5C 678.026,616.32 693.859,594.32 726.5,584.5 Z"/></g>
<g><path style="opacity:1" fill="#eec94f" d="M 545.5,686.5 C 593.89,683.481 629.39,703.147 652,745.5C 666.364,780.5 663.697,814.167 644,846.5C 625.549,872.484 600.382,887.318 568.5,891C 527.876,892.319 489.876,902.986 454.5,923C 431.029,936.135 410.195,952.635 392,972.5C 363.761,1017.26 323.594,1034.42 271.5,1024C 230.307,1010.47 205.807,982.3 198,939.5C 194.423,882.787 219.257,844.953 272.5,826C 284.663,823.182 296.996,821.849 309.5,822C 381.58,812.396 439.08,778.563 482,720.5C 499.478,702.179 520.645,690.846 545.5,686.5 Z"/></g>
<g><path style="opacity:1" fill="#ec6842" d="M 280.5,707.5 C 314.767,751.534 359.1,766.367 413.5,752C 419.61,749.598 425.61,747.265 431.5,745C 427.539,752.887 423.206,760.554 418.5,768C 377.024,796.38 331.024,811.38 280.5,813C 271.107,815.075 262.107,818.242 253.5,822.5C 253.167,822.167 252.833,821.833 252.5,821.5C 270.935,785.76 280.268,747.76 280.5,707.5 Z"/></g>
<g><path style="opacity:1" fill="#18a3af" d="M 551.5,729.5 C 585.645,728.824 607.478,744.824 617,777.5C 620.316,813.392 604.816,836.559 570.5,847C 542.752,851.039 521.585,841.206 507,817.5C 492.781,785.163 499.948,758.663 528.5,738C 535.88,734.044 543.547,731.211 551.5,729.5 Z"/></g>
<g><path style="opacity:1" fill="#eb6842" d="M 669.5,757.5 C 676.382,761.535 682.882,766.202 689,771.5C 710.234,815.903 717.734,862.57 711.5,911.5C 711.166,923.34 712.832,934.84 716.5,946C 691.344,927.924 663.678,914.257 633.5,905C 624.632,902.377 615.632,900.377 606.5,899C 654.759,874.006 677.259,834.173 674,779.5C 673.13,772.024 671.63,764.691 669.5,757.5 Z"/></g>
<g><path style="opacity:1" fill="#18a3af" d="M 818.5,862.5 C 851.865,860.084 874.365,874.418 886,905.5C 892.231,937.86 880.731,961.36 851.5,976C 823.41,985.744 799.91,979.244 781,956.5C 762.417,925.437 766.583,897.937 793.5,874C 801.16,868.511 809.493,864.678 818.5,862.5 Z"/></g>
<g><path style="opacity:1" fill="#18a3af" d="M 288.5,866.5 C 315.49,863.417 336.323,873.084 351,895.5C 364.336,923.311 360.17,948.144 338.5,970C 311.131,990.115 284.465,989.282 258.5,967.5C 238.559,945.41 235.393,921.077 249,894.5C 258.489,879.825 271.655,870.492 288.5,866.5 Z"/></g>
</svg>
