<?xml version="1.0" standalone="no"?>
<!DOCTYPE svg PUBLIC "-//W3C//DTD SVG 20010904//EN"
 "http://www.w3.org/TR/2001/REC-SVG-20010904/DTD/svg10.dtd">
<svg version="1.0" xmlns="http://www.w3.org/2000/svg"
 width="1920.000000pt" height="337.000000pt" viewBox="0 0 1920.000000 337.000000"
 preserveAspectRatio="xMidYMid meet">

<g transform="translate(0.000000,337.000000) scale(0.100000,-0.100000)"
fill="#000000" stroke="none">
<path d="M1510 3354 c-305 -39 -568 -140 -804 -308 -346 -247 -575 -599 -668
-1026 -20 -93 -23 -132 -23 -340 0 -205 3 -248 22 -335 134 -609 549 -1072
1128 -1258 196 -63 262 -72 525 -72 264 1 345 13 541 81 190 66 456 214 481
268 13 30 -11 82 -100 216 -73 109 -80 110 -199 36 -265 -164 -471 -227 -738
-228 -224 0 -389 38 -590 137 -362 179 -621 525 -690 922 -19 111 -19 333 0
445 73 414 349 768 746 957 426 203 904 165 1310 -105 37 -24 73 -44 81 -44 8
0 26 12 40 28 31 33 148 224 148 241 0 53 -106 132 -304 226 -235 112 -414
154 -686 159 -102 3 -201 2 -220 0z"/>
<path d="M17345 3354 c-138 -20 -239 -43 -352 -79 -577 -189 -993 -657 -1125
-1265 -19 -92 -22 -134 -22 -330 0 -197 3 -238 22 -330 146 -673 633 -1161
1309 -1312 85 -19 128 -22 333 -23 209 0 247 3 344 23 820 176 1379 888 1343
1711 -34 779 -580 1417 -1353 1581 -74 16 -146 22 -284 25 -102 2 -198 1 -215
-1z m368 -379 c197 -30 423 -125 589 -250 254 -191 436 -483 499 -800 21 -106
18 -388 -5 -495 -86 -398 -341 -727 -704 -909 -184 -93 -357 -132 -577 -132
-276 0 -503 69 -735 224 -95 64 -283 251 -342 342 -101 154 -179 347 -209 515
-20 110 -17 356 5 460 55 267 172 486 361 675 209 210 477 341 770 378 76 10
259 5 348 -8z"/>
<path d="M17440 1977 c-138 -39 -224 -152 -224 -297 -1 -89 25 -152 86 -211
65 -63 120 -84 218 -84 98 1 153 22 215 82 91 88 113 234 54 351 -64 129 -215
197 -349 159z"/>
<path d="M4474 3313 c-12 -2 -29 -12 -37 -21 -28 -32 -1387 -3147 -1387 -3180
0 -67 -105 -62 1460 -62 1592 0 1468 -6 1456 72 -11 68 -166 430 -751 1748
-322 726 -481 1093 -575 1325 -18 44 -40 88 -49 97 -17 18 -80 29 -117 21z
m510 -1810 c245 -579 446 -1057 446 -1063 0 -7 -299 -10 -920 -10 -673 0 -920
3 -920 11 0 6 203 487 451 1068 248 581 456 1067 461 1081 l10 25 12 -30 c8
-16 214 -504 460 -1082z"/>
<path d="M7552 3313 c-19 -2 -38 -13 -46 -26 -8 -12 -307 -725 -665 -1584
-436 -1046 -651 -1574 -651 -1598 0 -24 6 -37 19 -45 11 -5 85 -10 169 -10
135 0 152 2 175 20 19 15 50 82 117 253 246 624 963 2383 979 2399 3 4 97
-219 208 -494 l203 -501 -330 -791 c-233 -558 -330 -803 -330 -829 0 -31 4
-39 26 -47 36 -14 1629 -13 1655 0 13 8 19 21 19 46 0 23 -107 295 -321 812
-177 427 -324 785 -326 794 -5 18 395 1008 407 1008 4 0 49 -102 99 -227 197
-486 842 -2096 896 -2236 32 -82 68 -161 80 -175 23 -27 25 -27 180 -30 132
-3 160 -1 182 13 21 14 24 22 19 50 -9 48 -1289 3141 -1312 3171 -16 20 -31
25 -90 30 -39 4 -97 3 -128 0 -48 -6 -60 -12 -74 -35 -10 -16 -116 -265 -237
-554 -121 -290 -223 -523 -227 -519 -3 4 -104 245 -224 536 -120 290 -225 537
-233 548 -14 16 -32 20 -111 23 -52 2 -110 1 -128 -2z m1048 -2945 c0 -5 -157
-8 -350 -8 -192 0 -350 2 -350 5 0 6 340 857 347 869 5 8 353 -847 353 -866z"/>
<path d="M10770 3313 c-14 -3 -31 -10 -37 -15 -10 -8 -13 -342 -13 -1609 0
-1589 0 -1599 20 -1619 20 -20 29 -20 1131 -18 1086 3 1111 3 1125 22 10 15
14 55 14 162 0 125 -2 145 -19 165 l-19 24 -936 3 -936 2 0 315 0 315 745 0
c732 0 745 0 765 20 18 18 20 33 20 170 0 137 -2 152 -20 170 -20 20 -33 20
-765 20 l-745 0 0 750 0 750 934 0 c904 0 935 1 957 19 23 19 24 24 24 170 0
131 -2 153 -18 168 -17 17 -76 18 -1110 19 -601 1 -1103 -1 -1117 -3z"/>
<path d="M13605 3313 c-11 -3 -28 -12 -37 -21 -17 -14 -18 -104 -18 -1613 l0
-1598 22 -15 c20 -14 131 -16 994 -16 968 0 971 0 998 21 26 20 26 21 26 164
0 126 -2 146 -19 166 l-19 24 -816 3 -816 2 0 1424 0 1423 -21 19 c-18 16 -39
19 -148 21 -69 1 -135 -1 -146 -4z"/>
<path d="M1630 1977 c-91 -26 -164 -89 -203 -176 -30 -66 -29 -179 2 -243 29
-61 88 -119 149 -149 67 -33 197 -34 263 -1 155 76 215 254 139 408 -49 99
-138 160 -248 169 -32 3 -77 -1 -102 -8z"/>
</g>
</svg>
