<?xml version="1.0" standalone="no"?>
<!DOCTYPE svg PUBLIC "-//W3C//DTD SVG 20010904//EN"
 "http://www.w3.org/TR/2001/REC-SVG-20010904/DTD/svg10.dtd">
<svg version="1.0" xmlns="http://www.w3.org/2000/svg"
 width="1920.000000pt" height="337.000000pt" viewBox="0 0 1920.000000 337.000000"
 preserveAspectRatio="xMidYMid meet">

<g transform="translate(0.000000,337.000000) scale(0.100000,-0.100000)"
fill="#000000" stroke="none">
<path d="M1520 3354 c-292 -34 -586 -146 -820 -312 -121 -86 -296 -261 -383
-382 -127 -179 -229 -413 -278 -638 -33 -152 -38 -456 -10 -621 117 -686 628
-1215 1317 -1363 97 -20 135 -23 344 -23 265 1 346 13 541 81 180 62 451 212
479 264 15 28 7 49 -57 155 -81 132 -100 155 -129 155 -13 0 -65 -25 -115 -56
-228 -141 -401 -202 -634 -224 -651 -62 -1269 408 -1379 1050 -20 118 -21 339
-1 452 55 315 240 614 504 814 104 79 313 184 436 219 272 78 541 70 810 -25
114 -41 189 -78 292 -146 44 -30 87 -54 95 -54 8 0 26 12 39 28 26 28 130 193
142 225 14 38 -18 82 -99 134 -181 116 -423 212 -624 248 -91 16 -391 28 -470
19z"/>
<path d="M17290 3345 c-320 -44 -640 -190 -884 -403 -266 -233 -457 -564 -538
-935 -19 -89 -22 -132 -22 -327 0 -196 3 -238 22 -330 74 -340 219 -608 461
-851 243 -242 508 -387 846 -459 154 -34 449 -39 610 -12 368 64 671 217 925
472 158 157 272 325 354 519 99 234 130 394 130 661 0 222 -18 341 -80 529
-255 766 -1024 1245 -1824 1136z m490 -380 c501 -109 898 -500 1011 -994 28
-124 35 -347 15 -479 -74 -482 -416 -885 -884 -1042 -259 -87 -582 -84 -834 6
-292 105 -539 308 -695 571 -295 499 -224 1130 174 1553 192 204 455 345 743
396 98 17 367 11 470 -11z"/>
<path d="M17440 1977 c-91 -26 -164 -89 -203 -176 -30 -66 -29 -179 2 -243 29
-61 88 -119 149 -149 67 -33 197 -34 263 -1 109 54 169 150 169 273 0 65 -4
85 -31 137 -16 34 -45 73 -62 88 -77 66 -200 96 -287 71z"/>
<path d="M4478 3313 c-15 -2 -36 -16 -46 -31 -37 -53 -1382 -3139 -1382 -3170
0 -66 -105 -62 1460 -62 1588 0 1468 -6 1456 71 -11 67 -146 382 -696 1624
-385 868 -520 1180 -620 1425 -24 58 -50 113 -59 122 -17 18 -70 28 -113 21z
m496 -1785 c251 -592 456 -1082 456 -1088 0 -7 -285 -10 -921 -10 l-921 0 5
22 c2 13 206 493 452 1068 246 575 451 1056 456 1069 5 13 11 22 13 20 2 -2
209 -489 460 -1081z"/>
<path d="M7506 3288 c-8 -13 -307 -726 -665 -1585 -446 -1072 -651 -1574 -651
-1598 0 -51 25 -57 201 -53 127 3 150 6 168 22 11 10 64 129 117 265 229 580
958 2368 972 2383 4 4 98 -218 209 -494 l203 -500 -330 -792 c-233 -558 -330
-803 -330 -829 0 -31 4 -39 26 -47 34 -13 1614 -13 1648 0 21 8 26 16 26 45 0
23 -108 295 -321 812 -177 428 -324 786 -327 796 -5 18 396 1007 408 1007 9 0
187 -440 676 -1665 195 -490 365 -910 377 -935 33 -66 48 -71 225 -68 138 3
155 5 168 22 8 11 11 30 8 45 -9 42 -1286 3133 -1306 3164 l-19 27 -130 0
-129 0 -18 -29 c-9 -15 -116 -265 -237 -555 -120 -289 -223 -522 -227 -518 -4
4 -104 242 -222 528 -118 287 -222 534 -231 548 -17 26 -18 26 -146 26 -122 0
-129 -1 -143 -22z m1090 -2905 l6 -23 -351 0 c-193 0 -351 3 -351 6 0 7 339
854 347 867 5 8 336 -796 349 -850z"/>
<path d="M10732 3298 c-9 -9 -12 -380 -12 -1610 0 -1588 0 -1598 20 -1618 20
-20 29 -20 1131 -18 1086 3 1111 3 1125 22 10 15 14 55 14 162 0 125 -2 145
-19 165 l-19 24 -936 3 -936 2 0 315 0 315 745 0 c732 0 745 0 765 20 18 18
20 33 20 170 0 137 -2 152 -20 170 -20 20 -33 20 -765 20 l-745 0 0 750 0 750
933 0 c828 0 935 2 955 16 21 15 22 21 22 173 0 109 -4 161 -12 169 -17 17
-2249 17 -2266 0z"/>
<path d="M13567 3292 c-16 -17 -17 -144 -17 -1615 l0 -1596 22 -15 c20 -14
131 -16 994 -16 968 0 971 0 998 21 26 20 26 21 26 164 0 126 -2 146 -19 166
l-19 24 -816 3 -816 2 0 1418 c0 1267 -2 1420 -16 1440 -14 21 -21 22 -168 22
-135 0 -155 -2 -169 -18z"/>
<path d="M1641 1980 c-89 -19 -174 -89 -214 -179 -32 -70 -29 -180 6 -247 33
-65 75 -108 141 -142 44 -23 63 -27 136 -27 68 0 94 5 132 23 110 55 168 149
168 274 0 67 -4 84 -33 139 -63 123 -199 187 -336 159z"/>
</g>
</svg>
