<?xml version="1.0" standalone="no"?>
<!DOCTYPE svg PUBLIC "-//W3C//DTD SVG 20010904//EN"
 "http://www.w3.org/TR/2001/REC-SVG-20010904/DTD/svg10.dtd">
<svg version="1.0" xmlns="http://www.w3.org/2000/svg"
 width="1920.000000pt" height="337.000000pt" viewBox="0 0 1920.000000 337.000000"
 preserveAspectRatio="xMidYMid meet">

<g transform="translate(0.000000,337.000000) scale(0.100000,-0.100000)"
fill="#000000" stroke="none">
<path d="M1405 3340 c-614 -109 -1125 -544 -1314 -1118 -66 -202 -76 -272 -76
-542 0 -220 2 -256 23 -348 86 -383 299 -729 592 -964 191 -152 447 -273 702
-330 93 -21 127 -23 358 -23 240 0 261 2 365 27 190 45 361 116 530 220 97 60
135 95 135 124 0 25 -118 225 -158 267 -14 15 -31 27 -37 27 -7 0 -60 -30
-120 -66 -148 -90 -210 -119 -328 -159 -138 -46 -256 -65 -407 -65 -354 0
-671 131 -920 380 -162 162 -275 359 -332 578 -40 156 -49 367 -23 522 45 275
168 512 365 710 235 236 544 374 889 396 245 16 558 -73 792 -226 41 -28 83
-50 93 -50 9 0 28 12 41 26 38 41 145 228 145 253 0 34 -52 80 -164 146 -168
99 -343 166 -536 207 -145 30 -467 34 -615 8z"/>
<path d="M17267 3345 c-370 -60 -686 -222 -947 -485 -131 -131 -221 -257 -304
-425 -179 -360 -226 -738 -140 -1124 143 -640 635 -1126 1291 -1274 87 -19
127 -22 348 -22 221 0 261 3 348 22 514 116 934 439 1157 888 122 244 168 425
177 687 6 188 -5 309 -43 467 -154 629 -657 1114 -1299 1251 -132 29 -455 37
-588 15z m513 -385 c445 -91 816 -417 969 -852 49 -141 65 -243 65 -418 0
-227 -35 -383 -131 -575 -70 -141 -129 -221 -248 -341 -202 -203 -436 -325
-713 -370 -143 -24 -384 -14 -513 19 -383 100 -689 346 -864 695 -142 286
-169 657 -68 967 104 321 349 611 644 761 129 65 295 116 439 134 103 14 303
4 420 -20z"/>
<path d="M17445 1981 c-174 -46 -278 -238 -216 -402 45 -119 142 -190 271
-197 135 -7 242 55 300 173 32 67 34 179 3 246 -48 107 -151 178 -265 185 -35
2 -76 0 -93 -5z"/>
<path d="M4445 3298 c-18 -17 -222 -472 -710 -1586 -715 -1631 -713 -1626
-666 -1652 13 -7 482 -10 1445 -10 1322 0 1426 1 1441 17 33 33 16 84 -228
648 -35 83 -247 562 -470 1065 -355 803 -511 1161 -626 1441 -35 84 -54 99
-121 99 -26 0 -47 -7 -65 -22z m525 -1768 c249 -586 454 -1071 457 -1078 4 -9
-183 -12 -917 -12 -734 0 -921 3 -917 12 2 7 203 479 447 1048 243 569 448
1050 456 1069 8 19 16 32 18 30 3 -2 208 -483 456 -1069z"/>
<path d="M7532 3308 c-13 -7 -30 -24 -38 -38 -23 -41 -1302 -3118 -1309 -3149
-5 -22 -1 -35 14 -50 19 -19 33 -21 171 -21 165 0 190 6 214 54 9 17 105 256
215 531 334 840 834 2062 849 2077 7 7 406 -964 405 -986 0 -6 -147 -363 -327
-793 -340 -816 -351 -849 -307 -873 13 -7 292 -10 833 -10 909 0 866 -3 854
65 -4 19 -153 388 -332 821 l-325 788 18 46 c65 167 389 950 393 950 3 0 14
-24 26 -53 11 -28 197 -489 412 -1023 215 -534 441 -1098 502 -1255 86 -221
117 -290 140 -311 l30 -28 159 0 c146 0 159 1 176 20 17 18 17 26 8 63 -22 81
-1293 3142 -1313 3162 -18 17 -36 20 -134 23 -107 3 -114 2 -139 -20 -19 -16
-89 -174 -248 -555 -122 -293 -225 -533 -228 -533 -3 0 -103 236 -221 525
-118 289 -225 537 -237 552 -20 27 -25 28 -130 31 -74 2 -115 -1 -131 -10z
m891 -2495 c91 -230 169 -426 173 -435 6 -17 -15 -18 -346 -18 -207 0 -350 4
-348 9 37 101 345 861 349 861 3 0 80 -188 172 -417z"/>
<path d="M10742 3304 l-22 -15 0 -1604 0 -1604 22 -15 c20 -14 143 -16 1123
-16 980 0 1103 2 1123 16 21 15 22 21 22 169 l0 154 -26 20 c-27 21 -31 21
-955 21 l-929 0 0 315 0 315 743 0 c656 0 745 2 765 16 21 15 22 21 22 170 0
141 -2 156 -20 174 -20 20 -33 20 -765 20 l-745 0 0 750 0 750 938 0 c515 0
942 4 948 8 27 18 34 56 34 187 0 131 -1 137 -25 160 l-24 25 -1103 0 c-983 0
-1106 -2 -1126 -16z"/>
<path d="M13590 3313 c-41 -15 -40 31 -40 -1633 0 -1534 1 -1598 18 -1613 17
-16 101 -17 1000 -17 969 0 982 0 1002 20 18 18 20 33 20 169 l0 150 -26 20
c-27 21 -32 21 -835 21 l-809 0 0 1423 c0 1212 -2 1426 -14 1443 -13 17 -29
19 -158 21 -79 1 -150 0 -158 -4z"/>
<path d="M1635 1981 c-84 -22 -163 -88 -206 -171 -36 -68 -34 -185 4 -262 30
-61 74 -105 140 -140 35 -19 58 -23 137 -23 87 0 100 3 149 30 60 33 122 104
142 162 21 59 16 170 -8 224 -48 107 -151 178 -265 185 -35 2 -76 0 -93 -5z"/>
</g>
</svg>
