<?xml version="1.0" standalone="no"?>
<!DOCTYPE svg PUBLIC "-//W3C//DTD SVG 20010904//EN"
 "http://www.w3.org/TR/2001/REC-SVG-20010904/DTD/svg10.dtd">
<svg version="1.0" xmlns="http://www.w3.org/2000/svg"
 width="1498.000000pt" height="1435.000000pt" viewBox="0 0 1498.000000 1435.000000"
 preserveAspectRatio="xMidYMid meet">

<g transform="translate(0.000000,1435.000000) scale(0.100000,-0.100000)"
fill="#000000" stroke="none">
<path d="M7668 14339 c-251 -21 -526 -123 -742 -276 -104 -74 -265 -236 -339
-340 -116 -163 -212 -381 -252 -573 -9 -41 -22 -151 -31 -245 -56 -650 -261
-1228 -622 -1755 -216 -316 -539 -648 -827 -850 -49 -35 -135 -109 -190 -164
-259 -261 -410 -593 -434 -951 -51 -777 469 -1448 1234 -1591 148 -28 413 -25
555 5 519 110 923 448 1111 930 57 144 87 288 99 466 19 281 31 380 56 495 70
314 257 761 455 1091 239 399 535 726 923 1021 66 51 154 124 195 163 201 191
360 480 423 770 31 144 36 399 10 550 -53 308 -186 574 -397 793 -206 215
-439 351 -721 423 -99 25 -320 52 -388 48 -12 -1 -65 -5 -118 -10z m371 -659
c254 -72 470 -264 570 -505 49 -117 64 -196 64 -330 1 -406 -258 -740 -655
-847 -115 -31 -307 -30 -423 1 -308 82 -546 319 -629 626 -25 91 -32 274 -13
370 67 351 329 620 682 699 99 22 303 15 404 -14z m-2184 -3746 c171 -18 380
-126 508 -263 398 -425 273 -1112 -248 -1371 -132 -66 -236 -90 -385 -90 -193
0 -368 57 -521 171 -261 193 -394 532 -333 850 40 215 160 409 328 536 124 93
283 156 431 172 79 8 101 8 220 -5z"/>
<path d="M9311 11990 c-118 -172 -268 -326 -461 -470 -485 -361 -828 -788
-1085 -1347 l-67 -146 16 -126 c9 -69 16 -147 16 -173 0 -27 3 -48 8 -47 4 0
36 46 72 101 72 112 256 308 370 394 166 125 394 239 581 289 184 49 262 59
469 59 173 0 210 -3 322 -27 69 -15 176 -44 237 -66 61 -21 109 -36 107 -32
-2 3 -29 50 -61 104 -265 454 -433 991 -478 1522 -2 29 -3 28 -46 -35z"/>
<path d="M9067 10329 c-672 -59 -1205 -538 -1348 -1209 -32 -151 -32 -429 0
-580 30 -144 73 -265 138 -392 203 -400 564 -681 1007 -786 101 -24 130 -26
326 -27 260 0 299 7 590 105 245 83 293 95 464 121 170 26 557 36 791 20 582
-39 1125 -206 1613 -495 156 -93 222 -124 352 -166 166 -55 286 -73 470 -73
185 0 304 18 473 74 524 171 915 627 1009 1174 17 101 19 148 15 300 -6 196
-18 268 -72 431 -123 372 -401 691 -755 869 -202 101 -377 144 -625 152 -205
6 -341 -13 -531 -76 -229 -75 -433 -122 -684 -158 -99 -14 -193 -17 -450 -17
-339 0 -423 6 -680 55 -400 76 -863 253 -1157 443 -209 134 -443 213 -698 235
-66 6 -129 10 -140 10 -11 -1 -60 -5 -108 -10z m368 -664 c572 -168 810 -839
473 -1334 -50 -72 -156 -174 -241 -229 -282 -184 -644 -187 -932 -7 -197 122
-344 335 -390 564 -14 65 -16 114 -12 210 7 151 22 214 87 346 122 250 355
424 638 475 89 17 278 4 377 -25z m4252 -476 c397 -103 675 -483 649 -889 -29
-464 -405 -820 -866 -820 -497 0 -895 420 -867 915 20 354 252 660 590 776 45
15 111 33 147 38 90 14 253 4 347 -20z"/>
<path d="M4095 9834 c-296 -145 -688 -260 -1055 -309 -101 -13 -395 -34 -488
-35 -33 0 -33 0 40 -59 150 -121 284 -277 402 -471 325 -531 718 -908 1279
-1230 l108 -62 177 2 c97 0 178 2 179 4 2 2 -22 23 -54 47 -255 192 -468 493
-573 808 -60 178 -80 293 -87 479 -12 324 44 575 195 875 7 13 -12 6 -123 -49z"/>
<path d="M1332 9600 c-246 -31 -499 -130 -705 -277 -238 -168 -447 -453 -542
-737 -52 -154 -66 -240 -72 -431 -4 -153 -2 -198 15 -300 96 -556 477 -1000
1015 -1180 57 -19 168 -46 248 -60 1030 -178 1935 -800 2463 -1692 221 -374
555 -620 976 -720 130 -30 377 -42 515 -24 472 62 882 335 1119 746 132 229
196 475 196 752 0 388 -146 751 -415 1031 -161 168 -339 288 -540 366 -125 48
-231 73 -424 102 -283 41 -480 104 -766 245 -676 331 -1202 792 -1555 1364
-34 55 -82 130 -106 166 -214 320 -564 552 -953 630 -112 23 -359 32 -469 19z
m377 -650 c314 -75 551 -307 643 -627 19 -65 23 -101 22 -223 -1 -128 -4 -156
-28 -235 -159 -526 -740 -780 -1226 -535 -458 230 -618 808 -343 1238 126 198
327 338 553 386 100 22 279 20 379 -4z m3519 -2426 c268 -55 499 -237 617
-485 103 -218 107 -495 10 -713 -113 -255 -337 -439 -612 -502 -110 -26 -291
-24 -398 5 -308 82 -545 319 -631 631 -25 91 -26 329 -1 419 93 338 344 577
677 646 90 18 246 18 338 -1z"/>
<path d="M11018 7384 c-46 -31 -114 -76 -152 -100 -42 -26 -64 -45 -55 -48 8
-2 39 -10 69 -17 89 -19 247 -77 339 -124 372 -187 644 -497 766 -871 57 -172
69 -256 70 -465 l0 -187 120 122 c300 303 829 700 1168 877 l128 66 -94 7
c-200 15 -437 89 -599 188 -267 163 -524 299 -713 378 -212 88 -540 177 -791
215 -156 23 -161 23 -256 -41z"/>
<path d="M10267 7150 c-680 -64 -1224 -560 -1346 -1227 -61 -332 -16 -645 135
-948 76 -153 160 -265 330 -444 206 -217 306 -357 439 -616 226 -443 363 -881
422 -1350 23 -188 23 -589 -1 -805 -29 -259 -7 -469 70 -692 258 -740 1040
-1158 1799 -961 518 134 918 526 1069 1045 65 225 73 502 21 733 -62 274 -181
499 -376 710 -533 577 -849 1268 -945 2067 -24 199 -24 586 1 758 35 247 9
519 -70 740 -41 114 -138 295 -209 390 -83 111 -249 270 -358 343 -289 193
-650 288 -981 257z m263 -640 c342 -54 625 -311 710 -645 103 -401 -96 -822
-471 -1000 -127 -60 -214 -78 -374 -78 -123 0 -150 3 -228 26 -165 51 -281
122 -398 244 -300 314 -319 798 -45 1138 195 242 504 362 806 315z m1438
-4109 c259 -75 481 -275 576 -519 63 -161 78 -371 37 -527 -93 -353 -378 -606
-741 -655 -255 -35 -528 60 -718 251 -164 164 -252 378 -252 610 0 241 84 442
255 614 127 126 269 203 445 241 95 20 304 12 398 -15z"/>
<path d="M7639 5010 c-255 -24 -492 -108 -708 -250 -110 -73 -278 -232 -359
-339 -160 -212 -429 -487 -632 -645 -597 -464 -1283 -724 -2020 -766 -185 -10
-280 -26 -420 -72 -454 -147 -810 -498 -960 -946 -60 -179 -73 -268 -74 -482
0 -220 14 -313 80 -501 117 -338 360 -629 672 -808 367 -210 823 -254 1226
-119 314 105 556 293 791 613 187 255 395 449 705 656 322 216 599 357 914
465 322 111 603 165 1002 194 288 21 527 101 762 256 120 80 320 281 401 404
380 578 330 1325 -123 1840 -308 350 -794 543 -1257 500z m336 -654 c262 -71
454 -226 570 -461 29 -60 61 -141 70 -178 72 -300 -21 -617 -241 -828 -115
-109 -218 -169 -371 -216 -78 -23 -105 -26 -228 -26 -112 0 -156 4 -220 22
-304 82 -529 303 -621 608 -24 77 -27 106 -27 228 0 113 4 155 22 220 89 329
345 569 681 641 83 17 283 12 365 -10z m-3800 -2006 c111 -28 246 -96 335
-168 140 -112 225 -239 286 -422 26 -79 28 -97 28 -245 1 -188 -10 -238 -84
-390 -152 -314 -473 -502 -823 -482 -124 7 -206 27 -315 78 -508 235 -664 870
-324 1317 206 272 565 396 897 312z"/>
<path d="M3677 4548 c-20 -501 -150 -1012 -371 -1452 -24 -47 -42 -86 -41 -86
1 0 42 18 91 39 189 82 364 124 589 141 628 49 1138 223 1672 572 l122 80 76
155 c41 86 75 157 75 158 0 2 -46 -17 -102 -42 -239 -105 -470 -148 -748 -140
-199 6 -306 25 -491 87 -320 106 -626 325 -815 582 -25 35 -47 64 -48 66 -2 1
-6 -71 -9 -160z"/>
<path d="M9421 3870 c42 -166 53 -277 46 -473 -10 -298 -77 -538 -222 -794
-154 -275 -418 -528 -697 -669 l-73 -37 131 -27 c495 -104 1000 -327 1392
-617 40 -30 75 -53 77 -51 2 2 -7 47 -20 100 -49 204 -55 392 -25 763 20 246
-6 608 -65 882 -50 236 -130 477 -240 726 -46 104 -50 110 -109 149 -33 23
-96 68 -138 100 -42 32 -79 58 -81 58 -2 0 9 -49 24 -110z"/>
</g>
</svg>
