<?xml version="1.0" standalone="no"?>
<!DOCTYPE svg PUBLIC "-//W3C//DTD SVG 20010904//EN"
 "http://www.w3.org/TR/2001/REC-SVG-20010904/DTD/svg10.dtd">
<svg version="1.0" xmlns="http://www.w3.org/2000/svg"
 width="1498.000000pt" height="1435.000000pt" viewBox="0 0 1498.000000 1435.000000"
 preserveAspectRatio="xMidYMid meet">

<g transform="translate(0.000000,1435.000000) scale(0.100000,-0.100000)"
fill="#000000" stroke="none">
<path d="M7680 14340 c-447 -37 -872 -285 -1115 -650 -159 -239 -233 -461
-260 -783 -55 -657 -273 -1259 -650 -1796 -213 -303 -515 -610 -800 -812 -110
-78 -271 -237 -347 -345 -113 -158 -199 -350 -245 -544 -37 -155 -43 -417 -15
-585 106 -621 565 -1093 1192 -1226 87 -19 137 -23 290 -23 153 0 203 4 290
23 628 133 1091 612 1194 1236 9 50 20 173 25 275 16 285 57 476 162 758 279
746 686 1303 1279 1747 354 265 568 625 621 1041 16 130 6 371 -20 492 -121
555 -528 991 -1065 1141 -165 46 -364 65 -536 51z m298 -646 c268 -55 499
-236 617 -485 57 -122 77 -215 78 -364 1 -144 -18 -241 -72 -360 -108 -237
-322 -418 -577 -486 -113 -31 -316 -31 -429 0 -331 90 -573 346 -641 681 -20
100 -15 281 11 374 90 332 344 573 675 641 90 18 246 18 338 -1z m-2059 -3770
c314 -71 562 -309 653 -629 32 -114 32 -325 0 -438 -113 -395 -441 -647 -842
-647 -643 0 -1060 665 -780 1245 150 312 484 509 825 488 44 -2 109 -11 144
-19z"/>
<path d="M9304 11980 c-116 -168 -245 -301 -439 -448 -367 -279 -592 -515
-820 -857 -114 -171 -198 -322 -286 -514 l-60 -132 15 -128 c9 -70 16 -146 16
-169 0 -23 4 -42 9 -42 4 0 27 30 51 66 223 345 597 613 1004 719 326 84 650
72 978 -39 70 -23 126 -40 124 -37 -2 3 -29 50 -61 105 -80 137 -204 398 -259
544 -113 303 -198 681 -218 967 l-3 40 -51 -75z"/>
<path d="M9080 10329 c-320 -23 -628 -152 -875 -367 -358 -311 -551 -792 -506
-1263 62 -672 534 -1199 1201 -1345 68 -15 127 -19 300 -19 197 0 224 2 325
27 61 14 169 47 240 73 244 89 407 125 661 146 185 15 617 7 799 -15 513 -62
990 -223 1427 -483 248 -147 439 -211 700 -234 426 -38 860 121 1171 428 242
238 390 532 438 872 19 132 6 401 -24 531 -69 291 -197 521 -407 731 -174 174
-367 293 -597 368 -165 54 -248 66 -463 66 -224 0 -298 -12 -493 -76 -373
-123 -722 -179 -1119 -179 -245 0 -382 11 -594 46 -258 42 -510 112 -749 206
-141 56 -385 177 -480 238 -221 142 -470 231 -693 245 -42 3 -95 7 -117 9 -22
1 -87 -1 -145 -5z m353 -663 c217 -64 387 -194 505 -386 266 -431 95 -1009
-363 -1230 -138 -67 -219 -85 -380 -84 -164 1 -252 21 -380 84 -174 86 -308
221 -395 395 -73 147 -94 245 -87 415 6 153 21 216 78 339 121 259 356 439
646 491 90 17 279 4 376 -24z m4154 -457 c170 -23 340 -103 468 -222 124 -114
201 -238 252 -404 23 -77 26 -106 27 -228 0 -116 -3 -154 -22 -225 -91 -334
-369 -586 -705 -640 -94 -15 -267 -8 -351 15 -370 100 -629 412 -653 786 -35
548 441 992 984 918z"/>
<path d="M4126 9848 c-114 -58 -320 -140 -471 -187 -321 -100 -613 -150 -982
-166 l-152 -7 72 -58 c83 -66 211 -197 280 -287 27 -35 82 -118 123 -185 325
-528 710 -900 1252 -1212 l133 -76 181 2 181 3 -76 58 c-240 184 -450 483
-556 791 -61 175 -83 301 -88 506 -8 277 36 504 146 750 27 60 46 110 42 110
-3 -1 -42 -19 -85 -42z"/>
<path d="M1308 9595 c-658 -94 -1168 -589 -1280 -1240 -26 -155 -21 -418 11
-562 88 -398 310 -723 646 -945 179 -119 361 -188 610 -232 436 -77 852 -233
1231 -461 501 -302 920 -717 1209 -1201 104 -173 166 -253 283 -365 581 -558
1485 -561 2077 -7 242 226 411 562 456 903 16 124 6 374 -20 493 -62 284 -191
527 -386 730 -156 162 -302 265 -500 349 -134 56 -258 88 -462 118 -281 42
-475 103 -758 240 -710 345 -1232 813 -1620 1455 -79 130 -133 200 -240 305
-207 205 -471 345 -765 405 -135 28 -358 35 -492 15z m415 -649 c302 -77 543
-314 627 -616 121 -437 -131 -905 -564 -1048 -479 -159 -984 113 -1117 604
-31 113 -31 325 0 439 82 304 334 550 636 624 121 30 294 28 418 -3z m3504
-2422 c169 -35 301 -104 426 -223 125 -119 204 -252 248 -416 31 -116 32 -308
1 -423 -85 -318 -316 -549 -634 -634 -115 -31 -307 -30 -423 1 -386 103 -655
448 -655 840 0 418 289 771 700 856 90 18 246 18 337 -1z"/>
<path d="M11003 7373 c-54 -36 -122 -81 -152 -99 -59 -36 -59 -35 29 -55 90
-19 247 -77 344 -126 421 -211 709 -581 808 -1036 18 -84 22 -135 22 -293 l1
-191 130 131 c293 295 833 699 1159 868 l131 67 -47 1 c-68 0 -191 18 -283 41
-144 37 -275 95 -465 209 -344 206 -656 350 -937 431 -197 57 -514 119 -608
119 -26 0 -58 -16 -132 -67z"/>
<path d="M10275 7150 c-353 -30 -689 -186 -939 -436 -452 -452 -568 -1138
-291 -1719 81 -169 158 -273 362 -486 232 -242 384 -486 557 -894 150 -354
238 -680 282 -1045 25 -204 25 -588 0 -815 -35 -326 8 -583 145 -860 204 -414
583 -707 1042 -807 140 -30 457 -33 587 -4 557 121 974 489 1145 1010 57 176
69 257 69 471 0 158 -4 207 -22 291 -63 290 -184 524 -383 739 -395 428 -668
912 -828 1468 -127 439 -170 947 -115 1361 62 478 -78 926 -396 1259 -316 332
-765 505 -1215 467z m335 -655 c78 -21 211 -81 277 -126 26 -18 77 -60 112
-93 343 -327 359 -867 37 -1213 -115 -123 -238 -199 -403 -250 -77 -23 -106
-26 -228 -27 -166 0 -233 14 -375 80 -238 112 -404 311 -476 574 -28 103 -26
330 4 435 95 330 364 576 694 634 77 14 281 6 358 -14z m1298 -4081 c407 -83
695 -438 695 -854 0 -406 -268 -743 -673 -846 -105 -26 -295 -24 -405 5 -179
47 -354 160 -464 299 -74 93 -111 161 -153 283 -31 91 -33 99 -33 254 0 138 3
171 23 239 91 315 343 550 667 621 84 19 251 18 343 -1z"/>
<path d="M7655 5010 c-418 -30 -814 -244 -1073 -580 -658 -853 -1614 -1363
-2660 -1420 -241 -13 -417 -55 -607 -145 -434 -207 -742 -610 -831 -1090 -26
-136 -26 -412 0 -540 125 -631 605 -1103 1231 -1210 133 -23 366 -23 500 0
124 21 305 80 416 135 238 120 410 269 577 500 235 324 451 518 875 785 545
342 1097 519 1762 564 166 12 263 30 403 77 274 91 542 281 721 513 139 179
248 437 287 679 21 133 19 351 -5 492 -103 604 -574 1090 -1176 1214 -63 13
-108 18 -275 30 -25 2 -90 0 -145 -4z m338 -659 c236 -62 446 -235 556 -456
66 -133 84 -215 85 -380 1 -161 -13 -231 -74 -362 -50 -107 -88 -163 -169
-246 -223 -231 -551 -320 -854 -232 -297 86 -512 300 -604 602 -23 78 -26 104
-26 233 0 129 3 155 26 233 52 168 123 283 251 404 70 66 106 91 199 137 151
76 248 97 412 92 78 -3 147 -11 198 -25z m-3818 -2001 c217 -56 400 -188 523
-378 249 -385 139 -919 -244 -1183 -62 -43 -196 -104 -274 -125 -92 -26 -338
-26 -430 0 -137 37 -278 116 -379 211 -199 187 -302 464 -270 728 49 407 351
712 764 771 63 9 233 -4 310 -24z"/>
<path d="M3677 4547 c-19 -496 -145 -992 -370 -1450 -24 -48 -38 -86 -33 -83
273 121 408 154 776 186 344 31 704 124 1030 267 192 84 330 160 552 305 l107
70 76 155 c41 86 75 157 75 159 0 1 -34 -13 -75 -32 -101 -47 -259 -98 -380
-124 -144 -31 -420 -38 -573 -16 -457 67 -859 301 -1128 658 l-51 67 -6 -162z"/>
<path d="M9416 3893 c43 -158 57 -289 51 -488 -7 -267 -57 -472 -168 -701
-152 -313 -428 -601 -722 -754 l-102 -54 130 -27 c162 -33 231 -51 370 -96
347 -112 706 -292 994 -499 57 -41 105 -74 106 -72 2 2 -7 47 -20 100 -49 204
-55 383 -25 768 37 472 -61 1023 -272 1525 -74 176 -81 189 -138 225 -29 18
-90 62 -137 97 -47 34 -86 63 -88 63 -2 0 8 -39 21 -87z"/>
</g>
</svg>
