<?xml version="1.0" standalone="no"?>
<!DOCTYPE svg PUBLIC "-//W3C//DTD SVG 20010904//EN"
 "http://www.w3.org/TR/2001/REC-SVG-20010904/DTD/svg10.dtd">
<svg version="1.0" xmlns="http://www.w3.org/2000/svg"
 width="1498.000000pt" height="1435.000000pt" viewBox="0 0 1498.000000 1435.000000"
 preserveAspectRatio="xMidYMid meet">

<g transform="translate(0.000000,1435.000000) scale(0.100000,-0.100000)"
fill="#000000" stroke="none">
<path d="M7637 14340 c-433 -50 -835 -295 -1076 -656 -162 -241 -236 -468
-261 -797 -62 -823 -436 -1631 -1030 -2228 -157 -158 -265 -251 -405 -350
-294 -208 -508 -518 -595 -864 -107 -421 -27 -860 223 -1229 125 -185 354
-384 556 -485 376 -187 799 -212 1196 -71 209 75 379 184 545 350 126 125 210
240 284 388 111 222 149 378 166 692 11 212 28 329 70 486 62 235 186 544 324
810 250 480 596 887 1037 1219 284 214 462 454 564 759 45 133 62 219 74 360
49 615 -282 1197 -834 1467 -213 103 -388 147 -618 154 -78 2 -177 0 -220 -5z
m318 -645 c350 -61 629 -332 702 -679 8 -39 14 -120 14 -181 -1 -324 -183
-620 -471 -765 -437 -220 -966 -39 -1175 401 -197 416 -29 924 375 1133 185
96 360 125 555 91z m-1975 -3790 c245 -79 423 -232 529 -455 64 -134 84 -222
84 -375 0 -157 -21 -245 -88 -382 -110 -223 -306 -385 -550 -455 -67 -19 -104
-23 -225 -23 -121 0 -158 4 -225 23 -244 70 -440 232 -550 455 -67 137 -88
225 -88 382 0 160 21 246 93 390 120 241 322 397 600 461 35 9 105 12 195 10
120 -3 152 -7 225 -31z"/>
<path d="M9306 11989 c-116 -174 -246 -308 -446 -459 -174 -130 -284 -226
-436 -381 -254 -261 -431 -513 -611 -877 l-116 -233 17 -167 c10 -92 18 -175
19 -186 1 -11 25 16 64 75 235 355 596 609 1011 713 157 40 247 50 422 50 218
-1 416 -37 599 -109 36 -14 66 -23 68 -21 2 2 -22 45 -52 97 -255 429 -424
946 -478 1458 l-12 114 -49 -74z"/>
<path d="M9025 10328 c-642 -71 -1169 -555 -1306 -1196 -29 -141 -36 -366 -15
-510 51 -342 193 -623 440 -867 383 -379 939 -521 1464 -374 42 12 131 41 197
66 147 55 318 96 490 119 163 22 654 25 850 5 401 -40 785 -141 1139 -299 135
-61 213 -102 446 -236 424 -245 965 -258 1414 -35 204 102 420 285 549 466
127 179 228 421 262 631 26 158 17 460 -19 599 -75 296 -209 528 -429 740
-254 244 -565 383 -922 413 -209 17 -405 -10 -641 -88 -372 -124 -754 -179
-1169 -169 -126 3 -270 11 -320 16 -531 64 -1012 227 -1450 492 -316 191 -638
266 -980 227z m365 -654 c258 -58 469 -228 585 -468 69 -143 80 -195 79 -381
0 -148 -2 -166 -28 -245 -45 -134 -92 -219 -184 -327 -96 -114 -273 -220 -437
-264 -113 -30 -307 -30 -420 0 -160 43 -295 122 -411 242 -110 115 -177 232
-220 389 -28 101 -26 329 4 435 95 335 373 581 717 635 79 12 225 5 315 -16z
m4325 -495 c271 -82 486 -289 574 -554 108 -324 24 -668 -220 -901 -110 -104
-215 -165 -366 -211 -78 -23 -104 -26 -233 -26 -129 0 -155 3 -233 26 -306 94
-527 319 -608 622 -30 113 -31 297 -1 417 40 161 113 291 231 409 105 104 225
176 368 219 138 42 349 41 488 -1z"/>
<path d="M4165 9868 c-428 -221 -1032 -367 -1525 -368 l-135 -1 35 -27 c89
-69 198 -172 261 -246 70 -80 105 -131 269 -386 294 -458 714 -843 1230 -1125
l95 -52 177 4 178 5 -68 51 c-94 71 -246 226 -321 327 -379 512 -446 1183
-176 1758 24 50 43 92 42 92 -1 -1 -29 -15 -62 -32z"/>
<path d="M1285 9594 c-485 -75 -901 -378 -1122 -817 -57 -115 -117 -296 -137
-416 -21 -126 -21 -387 0 -512 107 -629 605 -1123 1239 -1230 870 -147 1663
-611 2207 -1291 97 -122 207 -278 249 -353 130 -237 289 -413 503 -557 386
-258 865 -321 1314 -172 237 78 436 205 612 391 380 399 511 980 339 1507
-120 367 -389 685 -725 858 -189 98 -330 140 -594 178 -271 39 -482 108 -780
256 -650 323 -1138 748 -1495 1299 -170 264 -212 321 -293 407 -234 245 -533
401 -872 453 -117 18 -325 18 -445 -1z m392 -640 c273 -56 492 -225 610 -469
80 -168 108 -346 79 -512 -51 -296 -221 -524 -480 -648 -148 -70 -197 -80
-381 -79 -148 0 -166 2 -245 28 -129 43 -213 89 -318 175 -113 93 -231 285
-273 446 -30 113 -30 308 0 420 86 324 342 569 666 638 93 20 248 21 342 1z
m3616 -2448 c317 -93 547 -341 614 -661 8 -38 14 -119 14 -180 -1 -393 -267
-734 -648 -831 -302 -77 -632 17 -841 240 -76 81 -114 137 -157 229 -59 122
-78 213 -79 367 0 162 15 230 83 375 85 180 214 312 387 398 147 74 259 98
424 93 85 -3 138 -11 203 -30z"/>
<path d="M10990 7369 c-58 -40 -127 -85 -155 -100 -53 -30 -53 -30 35 -50 96
-21 232 -69 335 -120 166 -80 277 -160 416 -299 184 -183 284 -344 364 -582
55 -164 70 -267 69 -473 l-1 -180 126 129 c291 297 853 717 1189 888 l134 68
-97 0 c-209 0 -485 88 -680 215 -176 115 -533 299 -725 373 -232 90 -639 188
-819 198 l-86 5 -105 -72z"/>
<path d="M10230 7150 c-249 -31 -508 -131 -713 -277 -104 -74 -266 -235 -339
-339 -335 -471 -378 -1075 -113 -1582 76 -147 150 -244 310 -411 221 -231 322
-376 470 -676 259 -525 384 -982 415 -1510 11 -197 7 -336 -17 -580 -34 -344
11 -615 147 -887 305 -609 981 -938 1649 -802 286 58 548 201 762 414 227 227
366 496 421 815 17 102 19 147 15 295 -6 192 -19 266 -73 430 -72 216 -168
374 -354 580 -409 453 -684 963 -833 1545 -77 300 -107 544 -107 882 0 140 6
277 14 345 31 249 28 388 -14 579 -128 589 -590 1041 -1186 1159 -116 23 -345
33 -454 20z m384 -660 c530 -135 804 -734 560 -1224 -51 -101 -89 -153 -174
-236 -133 -130 -307 -214 -500 -240 -203 -28 -448 37 -618 165 -430 324 -469
951 -81 1321 135 128 291 205 474 234 86 13 247 4 339 -20z m1346 -4090 c235
-66 434 -227 544 -439 75 -145 91 -218 90 -406 0 -148 -2 -166 -28 -245 -83
-250 -241 -430 -472 -536 -125 -58 -226 -77 -389 -72 -126 4 -150 8 -237 37
-236 80 -414 239 -517 463 -51 109 -71 191 -78 313 -24 433 278 819 704 900
106 20 283 13 383 -15z"/>
<path d="M7614 5010 c-392 -45 -758 -239 -993 -528 -213 -262 -279 -337 -392
-447 -147 -144 -252 -232 -413 -350 -528 -384 -1200 -629 -1826 -665 -188 -11
-282 -23 -392 -51 -269 -67 -498 -198 -699 -399 -213 -213 -344 -454 -412
-758 -18 -82 -21 -130 -22 -302 0 -179 3 -218 23 -309 136 -605 592 -1053
1195 -1173 144 -28 403 -31 544 -5 201 37 410 122 582 238 144 96 274 228 424
429 234 314 457 509 884 772 338 209 683 355 1045 443 237 58 368 77 723 105
261 21 490 98 702 235 355 231 594 592 669 1010 26 148 24 386 -4 532 -61 307
-200 569 -417 787 -273 274 -628 428 -1019 440 -72 3 -163 1 -202 -4z m368
-659 c491 -126 770 -638 609 -1117 -118 -352 -445 -587 -816 -587 -181 -1
-339 46 -485 144 -357 239 -486 710 -300 1095 123 254 375 441 650 483 90 14
250 5 342 -18z m-3814 -2002 c247 -56 455 -225 576 -466 104 -209 114 -464 25
-695 -124 -321 -457 -548 -804 -548 -266 0 -536 136 -694 349 -58 78 -121 206
-146 296 -25 91 -31 293 -12 387 58 279 237 506 491 623 176 82 365 100 564
54z"/>
<path d="M3680 4644 c0 -38 -5 -130 -10 -204 -35 -454 -149 -889 -341 -1289
-38 -79 -69 -146 -69 -148 0 -2 28 11 61 28 77 38 270 103 369 123 75 15 148
24 385 46 392 37 794 154 1155 335 197 99 502 289 521 325 9 16 142 290 148
303 2 5 -28 -7 -66 -27 -183 -91 -431 -153 -663 -163 -546 -23 -1065 210
-1402 631 -44 55 -82 103 -84 105 -2 2 -4 -27 -4 -65z"/>
<path d="M9394 3969 c103 -354 99 -711 -10 -1048 -45 -138 -147 -342 -231
-461 -86 -121 -281 -316 -401 -400 -51 -36 -135 -88 -187 -116 l-95 -51 72
-13 c482 -84 1025 -318 1443 -621 53 -38 97 -69 99 -69 2 0 -8 39 -21 88 -47
178 -66 446 -43 617 6 39 13 158 16 265 17 494 -80 983 -290 1470 -58 135 -66
147 -110 180 -27 19 -94 68 -149 109 -82 60 -99 69 -93 50z"/>
</g>
</svg>
