<svg xmlns="http://www.w3.org/2000/svg" viewBox="0 0 1921 1081.32"><defs><style>.cls-1{fill:#00a0b0;stroke:#fff;}.cls-1,.cls-2,.cls-3{stroke-miterlimit:10;}.cls-2,.cls-3{fill:#fff;stroke:#000;}.cls-2{opacity:0.3;}.cls-3{opacity:0.29;}</style></defs><g id="Camada_3" data-name="Camada 3"><rect class="cls-1" x="0.5" y="0.5" width="1920" height="1080"/></g><g id="bike"><path class="cls-2" d="M1490.27,778.14c-11.85-27.79-87.69-134.91-120.57-109.46-25.5,24.87,17.19,43.21,31.8,59.51,96.56,89.91,103.59,253,15.91,351.31h53.77C1530.66,992.27,1539,872.74,1490.27,778.14Z" transform="translate(1 1)"/><path class="cls-2" d="M1406.92,1043.16c65.69-89.12,52.51-223.82-31.4-296.73-7.19-5.37-17.35-4.51-24.55,1a21.28,21.28,0,0,0-7,23.13c95.07,95.37,80.18,248.85-45.44,308.9h76.61A234.87,234.87,0,0,0,1406.92,1043.16Z" transform="translate(1 1)"/><path class="cls-3" d="M1416.07,447.29c3.13-9.34,4.32-21.34,15-25.44,17.58-6.68,13.71-36.13-4.87-39-14-2.82-27.2-4.74-41.33-7.37,18.38-55.9,39.11-111,58.37-166.57,2.64-7.38,2-6.93,9.6-6.93q24.83,0,49.66,0c27.77,1.7,31.72-38.69,4.25-42.21-25.11-.37-50.25-.07-75.37-.08-10.64,0-17,4.63-21,14.59q-37.59,105.26-74.56,210.77c-8.46,28.42,24.53,29.57,43.88,32.94-.42,5.64-67.73,183.37-77.31,204.51C1034,551.88,819,847.74,973.05,1079.5h53.44c-162.64-188.31,18.72-479.63,259.29-416.14-.26,4.69-7.12,23.17-10.54,28.42-227.6-52.5-376.75,229-206.53,387.72h76.22c-196.12-93-98.2-391,115.14-346.69-9.59,27.38-20.63,54.06-30.77,81.22-2,5.18-2,5.21-7.66,5.33-80.56-2.21-124.59,104.75-64.65,159.17,47.22,45.58,120.42,29.58,147.71-24,8.89-18.79,21.14-57.51-8-63.21A21,21,0,0,0,1273,907.4c1.71,53.68-67.39,76.35-94.77,29.34-16.18-28.17-.27-65.49,31.45-73.09-1.79,8.85-5.69,15.31-8.2,23.69-8.38,26.47,30.71,39.89,40.48,13.24,43.64-112.41,85.36-225.53,129.72-337.64,113.86,120.85,226.33,242.91,340,364a19.45,19.45,0,0,1,5,8.63c6.17,26.32,22.35,45.35,43.28,61.46-20.72,57.34-6.62,34-60,40.81-21.77,5.45-20,38.76,2.63,41.69h22.91v.32q35.67,0,71.34,0c7.69,0,14.1-2.55,18.66-8.84,12.56-17.86-4.33-36.93-24.29-34.73,13-35.46,26.57-70.36,40-105.6a21.91,21.91,0,0,0-8.13-26.31c-31.82-16.76-36.83,30.5-47.05,50.3-38-30.52-16.74-96.69,31.63-100.13,37.49-4.82,69.73,29.36,63.32,66.6-4,37.85-48.42,39.17-32.11,68.81,14.75,21.43,39.36,2.05,51.1-12.67,12.26-15.58,8.29-16.57,29.48-15.55V918.87h-5c1.19-32.11-9.75-60.58-33.74-82.17-4.7-4.29-4.81-4.27-2.51-10q20.61-51.47,41.27-102.92V582.14C1751.91,536.79,1583,493.88,1416.07,447.29ZM1910.7,631.43q-35.43,88.17-70.88,176.33c-2.44,6.06-2.43,6.06-9.15,5.1-45.78-8.32-91.58,18.3-109.73,60.62-109.55-114.91-217-232.44-325.86-348.28-1.57-1.69-3.78-3.18-2.77-6.11,3.38-9.77,6.74-19.54,10.18-29.53,7,.48,505.73,133,510.32,136C1912.15,627.4,1911.5,629.44,1910.7,631.43Z" transform="translate(1 1)"/><path class="cls-2" d="M1874.94,499.25c-25.88-2.75-35.27,33.64-9.81,41.48,17.83,3,36.32.67,54.37,1.36V499.28Z" transform="translate(1 1)"/></g></svg>